<?xml version="1.0" standalone="no"?>
<!DOCTYPE svg PUBLIC "-//W3C//DTD SVG 20010904//EN"
 "http://www.w3.org/TR/2001/REC-SVG-20010904/DTD/svg10.dtd">
<svg version="1.0" xmlns="http://www.w3.org/2000/svg"
 width="896.000000pt" height="704.000000pt" viewBox="0 0 896.000000 704.000000"
 preserveAspectRatio="xMidYMid meet">

<g transform="translate(0.000000,704.000000) scale(0.100000,-0.100000)"
fill="#000000" stroke="none">
<path d="M0 5066 l0 -1974 23 -5 c12 -3 85 -6 162 -6 157 -1 347 -19 339 -32
-6 -10 3 -12 71 -11 l50 1 -54 -9 c-30 -4 -61 -6 -70 -3 -14 4 -14 3 -1 -6 8
-6 26 -9 40 -6 14 2 56 7 95 10 38 3 74 10 80 15 12 10 145 26 145 18 0 -3
-13 -29 -29 -59 -28 -52 -30 -54 -82 -62 -30 -5 -69 -6 -86 -3 -30 4 -33 2
-34 -22 -2 -33 -3 -43 -11 -62 -4 -8 -9 -22 -11 -30 -3 -11 -7 -8 -14 10 -10
24 -10 24 -15 -8 -2 -18 -1 -32 4 -32 4 0 8 -4 8 -10 0 -20 -21 -9 -30 16 -7
18 -6 42 5 84 19 75 20 73 -15 55 -16 -8 -42 -15 -57 -15 -22 0 -25 -2 -13
-10 8 -5 13 -10 10 -10 -3 0 -32 -3 -65 -6 -33 -4 -64 -10 -68 -14 -4 -4 6
-33 24 -65 17 -32 26 -55 20 -51 -6 4 -11 3 -11 -2 0 -6 7 -12 15 -16 24 -9
18 -29 -7 -23 -14 4 -29 0 -40 -10 -11 -10 -18 -12 -18 -5 0 7 5 12 10 12 6 0
10 5 10 10 0 13 -33 13 -47 -1 -8 -8 -13 -8 -17 0 -4 6 -2 11 5 11 7 0 9 9 6
22 -4 12 -1 28 5 35 8 10 6 13 -6 13 -21 0 -21 16 0 28 13 7 14 13 5 29 -10
20 -18 21 -158 18 -82 -1 -153 -3 -160 -4 -10 -1 -12 -150 -13 -664 l0 -663
37 -10 c37 -9 58 -34 29 -34 -9 0 -16 5 -16 12 0 9 -3 9 -11 1 -6 -6 -18 -9
-25 -6 -11 4 -14 -9 -14 -61 0 -49 4 -66 13 -66 8 0 22 -9 32 -20 13 -15 22
-17 36 -9 15 7 21 6 25 -6 3 -8 13 -15 21 -15 8 0 21 -6 29 -14 28 -29 -19
-22 -85 11 -35 18 -65 33 -67 33 -2 0 -4 -308 -4 -685 l0 -685 2377 0 2376 0
-24 27 c-13 15 -31 33 -39 40 -8 7 -11 13 -7 13 5 0 29 -18 54 -40 l46 -40
2088 0 2089 0 0 1977 c0 1881 -1 1975 -17 1961 -20 -17 -94 -52 -198 -92 -38
-15 -83 -34 -100 -41 -61 -25 -161 -55 -186 -55 -14 0 -55 -19 -90 -41 -48
-32 -76 -43 -113 -46 -27 -2 -54 -7 -60 -11 -6 -5 -32 -16 -57 -26 -26 -9 -54
-25 -64 -36 -10 -11 -43 -29 -74 -41 -31 -11 -81 -36 -112 -54 -30 -19 -96
-48 -145 -66 -49 -17 -110 -42 -136 -56 -45 -25 -53 -26 -144 -19 -94 6 -96 6
-132 -22 -51 -40 -58 -43 -100 -49 -51 -8 -84 -8 -103 1 -10 4 -23 1 -32 -8
-25 -26 -67 -37 -111 -31 -44 6 -197 -27 -178 -38 5 -4 68 -7 139 -6 93 0 138
4 158 15 25 13 27 13 14 -3 -8 -9 -27 -25 -44 -36 l-30 -19 75 5 c41 3 83 8
93 12 11 5 17 2 17 -7 0 -13 12 -13 93 -1 110 16 117 18 117 37 0 8 14 17 31
21 31 7 44 2 44 -18 0 -7 11 -11 24 -9 15 2 21 0 17 -7 -7 -11 6 -15 16 -5 4
3 55 7 115 9 59 2 137 9 173 14 36 5 131 19 211 30 233 32 463 87 539 127 31
16 116 44 135 44 8 0 15 5 15 10 0 13 47 13 55 1 3 -5 -6 -22 -21 -36 -22 -22
-25 -33 -21 -61 5 -27 2 -36 -11 -41 -9 -3 -24 -12 -33 -19 -8 -8 -33 -17 -55
-22 -33 -7 -43 -15 -65 -56 -15 -27 -34 -53 -43 -58 -26 -15 -46 -64 -40 -96
5 -27 1 -34 -36 -61 -24 -17 -49 -31 -57 -31 -7 0 -23 -12 -36 -26 -27 -31
-138 -106 -190 -127 -20 -9 -56 -31 -78 -49 -22 -18 -52 -42 -66 -54 -19 -15
-26 -31 -27 -60 -1 -26 -7 -39 -16 -40 -8 -1 -24 -2 -36 -3 -13 -1 -29 -16
-43 -41 -12 -22 -31 -45 -42 -51 -12 -6 -27 -26 -35 -44 -7 -18 -23 -36 -33
-40 -11 -3 -30 -22 -41 -41 -13 -19 -30 -34 -41 -34 -12 0 -19 -7 -19 -19 0
-28 -14 -34 -91 -37 -37 -2 -88 -11 -113 -19 -26 -9 -56 -13 -66 -10 -11 4
-20 2 -20 -4 0 -7 -21 -9 -56 -6 -45 4 -63 1 -89 -15 -18 -11 -41 -21 -51 -22
-11 -1 6 -4 36 -7 30 -3 55 -10 55 -16 -1 -5 22 -19 50 -31 39 -16 66 -20 126
-18 l76 4 -25 -85 c-28 -93 -47 -110 -99 -86 -23 11 -29 8 -64 -30 l-39 -42
-38 30 c-35 28 -43 30 -113 29 -58 -1 -80 -5 -94 -19 -9 -10 -23 -16 -30 -13
-12 4 -86 -17 -108 -31 -6 -3 -2 -12 8 -19 26 -19 10 -30 -21 -15 -25 11 -30
9 -74 -37 -52 -54 -76 -64 -164 -68 -70 -3 -84 -13 -70 -51 7 -20 16 -27 30
-25 51 9 164 7 164 -3 0 -6 9 -29 20 -52 10 -22 20 -58 21 -79 2 -22 11 -50
21 -63 10 -14 15 -28 11 -32 -21 -21 -333 -7 -367 16 -11 9 -21 20 -21 26 0 6
-27 21 -59 33 -33 13 -62 28 -64 34 -2 6 -31 25 -65 43 -34 17 -72 42 -83 54
-35 38 -64 82 -64 98 0 9 -4 17 -10 19 -13 4 -39 161 -33 206 2 20 10 53 18
73 8 20 12 39 9 41 -2 3 2 11 11 18 8 7 15 16 15 20 0 5 15 34 33 67 18 32 39
74 46 93 8 19 34 77 59 128 36 73 58 103 104 144 32 29 58 59 58 68 0 8 7 29
16 45 20 38 11 128 -16 155 -14 14 -20 16 -24 5 -3 -9 -16 -12 -37 -10 -17 3
-39 0 -48 -4 -10 -6 -25 -4 -43 5 -25 13 -28 13 -28 -2 0 -16 -1 -16 -19 0
-15 14 -23 15 -45 5 -24 -11 -29 -10 -52 14 -13 14 -24 30 -24 35 0 14 32 24
43 13 5 -5 21 -5 41 0 22 7 34 6 41 -4 6 -7 22 -12 38 -12 28 0 36 10 15 18
-8 3 -6 6 5 6 10 1 20 -6 23 -14 4 -8 10 -15 15 -15 6 0 5 8 0 19 -13 23 4 41
35 39 15 -2 19 -8 16 -24 -2 -12 1 -25 8 -29 13 -8 21 -3 24 17 4 28 17 40 32
27 22 -18 18 -42 -6 -34 -14 4 -20 2 -20 -9 0 -8 9 -17 19 -21 20 -6 24 -14
36 -75 4 -19 12 -43 17 -53 9 -18 10 -18 29 -1 15 13 19 29 18 66 -1 27 -7 52
-12 55 -6 4 -7 1 -2 -7 5 -9 4 -11 -4 -6 -23 14 7 36 35 26 28 -11 31 -3 7 17
-10 8 -12 12 -5 8 6 -3 12 -1 12 5 0 6 -14 13 -30 17 -38 7 -49 23 -17 23 40
0 51 23 32 64 -18 37 -31 41 -53 16 -8 -8 -11 -10 -8 -4 3 6 -1 20 -9 30 -18
24 -18 31 -1 31 8 0 15 -3 14 -6 -2 -20 4 -29 20 -26 9 1 30 -4 45 -12 16 -8
31 -12 34 -9 3 3 -2 8 -11 12 -10 4 -14 13 -11 24 3 9 -1 23 -10 30 -8 7 -15
18 -15 26 0 7 -8 18 -17 23 -10 6 -14 11 -10 11 4 0 2 10 -5 23 -18 31 -38 90
-33 96 3 2 8 -5 12 -15 3 -10 13 -23 20 -27 7 -5 11 -12 8 -18 -4 -5 -1 -9 5
-9 6 0 9 -4 6 -9 -7 -11 18 -33 27 -24 7 6 11 -11 8 -34 -1 -7 3 -13 9 -13 6
0 8 -5 5 -10 -4 -6 -1 -9 6 -8 7 2 15 -6 17 -17 5 -24 31 -55 46 -55 6 0 5 5
-2 12 -7 7 -12 20 -12 30 0 10 -5 18 -12 18 -6 0 -8 3 -5 7 4 3 2 12 -5 20
-11 14 -12 22 -22 116 -4 37 -2 46 7 38 7 -5 14 -22 15 -37 1 -15 10 -39 19
-53 12 -18 16 -42 15 -77 -2 -41 1 -53 19 -70 15 -12 20 -14 15 -4 -4 8 2 4
13 -10 l21 -25 -11 32 c-7 21 -15 30 -22 26 -8 -5 -8 -2 0 8 9 11 10 25 4 45
-5 17 -6 53 -3 82 4 42 1 53 -12 58 -9 3 -16 15 -16 26 0 15 -5 19 -19 15 -13
-3 -22 3 -31 22 l-12 26 -32 -39 -33 -38 -22 31 c-14 20 -31 31 -46 31 -29 0
-65 43 -65 79 0 16 -3 21 -8 14 -10 -17 -29 -3 -33 25 -5 28 -24 29 -23 2 0
-11 -4 -20 -10 -20 -19 0 -39 17 -33 27 4 6 0 19 -8 29 -13 18 -14 18 -12 -3
0 -12 5 -19 11 -16 5 3 6 1 2 -6 -13 -20 -37 8 -34 38 2 17 -1 25 -10 23 -8
-1 -12 3 -10 10 3 7 -2 18 -11 24 -8 7 -21 27 -27 45 l-12 34 -13 -32 c-8 -18
-17 -33 -22 -33 -4 0 -5 4 -2 10 3 6 2 10 -3 10 -14 0 -21 -73 -9 -88 8 -10 7
-16 -4 -23 -12 -7 -12 -9 1 -9 11 0 12 -2 3 -8 -7 -4 -11 -19 -8 -32 3 -14 7
-62 9 -107 3 -46 9 -90 14 -99 5 -9 8 -26 5 -38 -3 -19 -3 -19 6 2 6 12 12 22
14 22 2 0 5 -31 5 -69 1 -38 6 -81 12 -95 13 -36 13 -35 -11 -31 -16 3 -19 0
-14 -15 3 -10 2 -21 -3 -24 -5 -3 -9 11 -8 32 1 20 -2 48 -6 61 -7 19 -6 22 8
17 14 -5 15 -4 5 8 -7 8 -10 19 -7 25 3 5 -1 12 -10 15 -8 3 -13 10 -9 15 3 6
-4 43 -15 83 -23 83 -25 102 -9 92 7 -4 9 0 6 12 -4 11 -9 31 -13 47 -3 15
-10 27 -14 27 -5 0 -7 21 -6 46 1 25 -1 47 -5 50 -4 2 -8 34 -8 69 0 36 -3 69
-6 75 -3 5 -2 10 3 10 5 0 9 14 10 31 1 35 12 54 12 21 0 -11 5 -24 11 -28 8
-4 9 3 5 25 -3 17 -9 45 -12 61 -4 23 -9 28 -18 21 -10 -8 -16 -1 -26 32 -8
23 -22 50 -32 60 -10 10 -18 28 -18 41 0 13 -6 29 -14 35 -19 16 -21 -11 -21
-261 0 -146 3 -210 12 -219 9 -9 9 -15 -2 -25 -15 -15 -26 -18 -23 -6 0 4 -2
14 -5 22 -7 16 -25 210 -24 250 2 75 -4 181 -10 177 -5 -3 -8 54 -7 126 1 111
-1 134 -16 149 -17 18 -18 18 -34 -7 -10 -15 -23 -24 -31 -21 -10 3 -19 -11
-30 -50 -15 -53 -37 -70 -49 -39 -3 8 -12 15 -20 15 -8 0 -17 6 -19 13 -17 40
-3 -95 19 -183 37 -155 58 -282 48 -298 -10 -15 0 -206 12 -236 5 -14 4 -17
-4 -12 -8 4 -12 0 -12 -11 0 -15 -2 -16 -10 -3 -7 10 -9 -3 -5 -45 l5 -60 -13
50 c-9 32 -10 57 -4 69 6 12 6 16 -1 12 -6 -3 -13 0 -15 6 -3 7 -6 -9 -7 -37
-2 -60 -9 -45 -35 68 -18 77 -35 101 -35 50 0 -16 -5 -35 -10 -43 -7 -11 -8
-6 -4 16 3 18 1 34 -5 38 -5 4 -7 14 -4 23 5 12 3 14 -7 8 -10 -6 -12 -4 -6
10 4 10 3 21 -2 24 -5 3 -7 22 -4 41 5 34 6 34 14 10 6 -19 6 -16 2 10 -3 19
-5 52 -5 73 0 20 -3 37 -7 37 -4 0 -7 33 -6 73 1 42 -6 114 -19 172 -11 55
-21 115 -20 133 0 18 -3 28 -7 23 -12 -20 -25 6 -28 57 -3 50 -34 122 -51 122
-11 0 -41 -35 -41 -47 0 -6 -7 -13 -15 -17 -8 -3 -15 -14 -15 -24 0 -28 -11
-34 -32 -15 -27 24 -32 11 -19 -59 6 -35 14 -116 17 -180 3 -66 10 -116 15
-112 5 3 9 -5 9 -18 0 -18 -2 -20 -10 -8 -8 13 -10 13 -10 -2 0 -9 7 -21 16
-26 17 -10 15 -48 -3 -45 -5 1 -15 -9 -21 -22 -9 -20 -9 -23 3 -18 8 3 15 9
15 14 0 5 5 9 10 9 6 0 10 -7 10 -16 0 -8 -4 -13 -9 -9 -15 9 -33 -34 -27 -61
9 -35 26 -29 26 8 0 24 3 29 12 20 14 -14 -8 -126 -23 -117 -5 4 -9 -20 -9
-55 0 -43 -4 -60 -12 -58 -6 2 -14 10 -16 18 -3 7 0 10 5 7 15 -9 -19 326 -35
346 -7 8 -8 26 -2 52 19 80 7 295 -15 274 -8 -9 -13 -59 -6 -59 5 0 4 -20 -2
-45 -6 -25 -12 -44 -14 -42 -1 2 -7 27 -13 55 -11 60 2 108 31 117 16 5 19 14
17 38 -2 19 -8 31 -15 30 -7 -2 -13 4 -13 13 0 8 4 13 9 9 5 -3 18 7 29 22 21
30 17 44 -20 86 -19 23 -33 16 -74 -32 l-29 -35 0 -185 c-1 -254 17 -445 50
-525 5 -12 5 -17 -1 -13 -6 3 -9 -10 -7 -31 l2 -37 -10 40 c-6 22 -13 57 -16
78 -3 20 -9 37 -13 37 -4 0 -5 11 -2 25 6 36 -4 31 -24 -11 -15 -31 -16 -43
-6 -80 15 -57 15 -91 0 -97 -8 -3 -14 -28 -16 -63 -4 -66 -5 -69 -24 -58 -26
17 -38 12 -38 -14 l-1 -27 -14 25 c-7 14 -16 24 -19 23 -17 -8 -26 -1 -26 20
-1 25 -30 71 -30 46 0 -12 -2 -12 -10 1 -5 8 -10 11 -10 5 0 -5 -9 7 -19 27
-22 40 -36 142 -18 131 7 -4 8 0 2 13 -4 10 -10 36 -13 58 -3 30 -1 37 8 31
10 -6 11 -2 5 16 -4 13 -8 34 -9 47 -1 28 -12 29 -19 1 -11 -42 -27 -6 -27 62
0 47 4 69 12 69 9 0 9 3 0 12 -7 7 -12 43 -12 93 0 45 -3 138 -7 206 -8 136
-20 125 -22 -20 0 -46 -3 -82 -5 -80 -10 10 -16 128 -18 341 -1 208 0 229 17
248 10 11 22 20 26 20 20 0 37 -34 43 -89 7 -63 21 -85 33 -54 17 45 83 94 83
62 0 -8 4 -8 14 0 11 10 16 9 24 -5 8 -13 13 -14 31 -4 13 6 34 9 47 6 23 -6
51 4 86 32 9 8 23 11 30 6 7 -4 10 -4 6 1 -4 4 6 25 22 45 16 20 27 40 23 44
-3 3 1 6 10 6 10 0 17 -4 17 -10 0 -5 11 -10 24 -10 26 0 56 37 56 69 0 11 6
21 13 24 8 3 4 11 -12 24 -27 22 -20 48 10 40 11 -3 19 -1 19 4 0 5 -4 9 -8 9
-4 0 -6 16 -4 36 3 27 10 38 31 45 14 6 36 22 48 37 12 15 22 21 23 15 0 -22
20 -14 20 7 0 11 -7 20 -15 20 -13 0 -13 3 -3 20 7 11 18 20 24 20 7 0 14 7
18 15 3 8 1 15 -4 15 -15 0 -12 36 5 50 8 7 12 17 8 23 -3 6 -7 24 -9 40 -1
22 3 31 17 34 20 6 27 23 9 23 -5 0 -10 8 -9 18 0 10 3 12 6 5 7 -20 33 -15
33 6 0 10 -7 24 -15 31 -8 7 -15 19 -15 27 0 11 4 11 20 3 11 -6 18 -15 15
-20 -7 -11 31 -23 46 -14 8 4 3 11 -12 20 -19 10 -20 13 -6 14 9 0 17 7 17 16
0 12 -6 15 -24 10 -25 -6 -44 8 -27 19 6 3 8 12 5 19 -3 7 1 18 9 25 15 12 47
5 47 -10 0 -5 7 -9 15 -9 20 0 19 6 -6 41 -20 28 -20 31 -5 54 19 29 41 32 50
9 4 -10 14 -14 26 -11 16 4 20 0 20 -21 0 -14 3 -22 6 -19 4 3 14 2 24 -3 15
-8 18 -3 24 39 5 39 11 50 28 54 29 8 35 1 19 -24 -15 -25 -9 -36 9 -14 7 8
19 15 27 15 12 0 11 -5 -3 -29 -13 -22 -14 -35 -7 -57 5 -16 16 -29 24 -29 17
0 25 -33 10 -48 -6 -6 -11 -17 -11 -25 0 -17 59 -140 71 -148 5 -3 5 -13 0
-23 -11 -20 11 -61 33 -61 12 0 39 -43 41 -65 0 -5 4 -16 8 -22 11 -18 -1 -16
-19 2 -37 36 -46 0 -14 -52 11 -18 25 -33 30 -33 6 0 8 -5 4 -12 -4 -6 -3 -8
4 -5 5 4 8 16 5 27 -7 27 12 25 31 -2 12 -17 13 -24 3 -30 -8 -5 -6 -8 8 -9
35 -3 40 -4 53 -13 10 -6 10 -11 2 -21 -8 -10 -7 -14 2 -18 11 -3 11 -8 0 -26
-16 -28 2 -60 32 -54 14 3 17 2 9 -4 -23 -16 -11 -48 19 -50 32 -2 31 -3 17
34 -8 21 -7 30 3 38 7 5 14 27 15 49 1 30 -2 39 -17 43 -13 3 -22 20 -29 51
-11 53 -10 54 24 58 16 2 25 -2 25 -12 0 -8 7 -14 15 -14 8 0 15 5 15 10 0 6
-4 10 -10 10 -5 0 -10 7 -10 15 0 10 10 15 27 15 25 0 25 1 10 18 -13 14 -14
21 -5 30 9 9 7 17 -8 34 -15 18 -15 20 -1 9 20 -16 22 -9 5 19 -9 15 -10 23
-2 28 15 10 5 92 -11 92 -16 0 -28 27 -15 35 5 3 13 -3 19 -12 10 -17 10 -17
11 0 0 19 39 77 41 61 1 -5 4 2 8 16 4 14 3 31 -2 38 -5 7 -7 16 -3 20 10 9
47 -40 41 -55 -2 -7 -1 -13 4 -13 5 0 12 12 15 26 10 38 50 30 54 -11 4 -33
25 -55 55 -55 11 0 28 -10 39 -22 19 -22 19 -22 12 35 -6 54 -6 56 19 62 14 4
32 3 38 -1 7 -4 22 -9 33 -10 12 -1 34 -6 50 -10 25 -6 28 -4 23 10 -4 11 -3
15 4 10 6 -3 9 -15 6 -25 -3 -12 0 -19 9 -19 8 0 14 5 14 11 0 18 59 -35 59
-53 1 -11 9 -18 21 -18 12 0 35 -7 52 -16 67 -35 158 -22 158 22 0 26 16 34
55 26 23 -4 27 -2 22 12 -6 14 -3 15 14 5 21 -11 51 -6 47 8 -2 5 7 19 19 32
17 18 29 22 57 19 22 -2 37 1 40 8 3 7 2 15 -2 17 -4 2 0 2 8 0 33 -10 80 -11
86 -2 3 5 -3 9 -13 10 -10 0 -1 7 19 16 21 8 36 19 33 23 -3 5 0 12 6 16 8 4
9 3 5 -4 -4 -7 -3 -12 3 -12 11 0 51 40 51 51 0 4 17 13 38 20 20 7 42 19 48
27 10 13 15 13 43 -1 31 -15 32 -15 26 3 -5 17 -1 19 37 18 24 -1 46 -6 50
-12 4 -6 11 -6 20 2 11 9 18 9 28 -1 10 -9 11 -9 6 1 -5 8 3 12 28 12 36 0 58
22 49 48 -3 6 2 12 10 12 8 0 20 6 26 14 7 8 31 18 54 21 23 4 47 11 53 16 8
6 14 4 18 -6 4 -12 10 -14 25 -5 11 5 29 10 41 10 11 0 23 7 25 15 3 8 8 23
12 33 3 9 7 20 7 24 2 16 18 21 26 8 8 -12 10 -12 16 3 3 9 14 17 24 17 10 0
26 7 34 16 10 10 16 11 16 3 0 -8 3 -9 14 0 7 6 21 8 30 5 11 -4 16 -2 14 6
-2 7 8 14 21 16 12 2 34 13 48 24 14 11 32 20 39 20 8 0 14 4 14 9 0 5 8 12
18 15 10 4 26 22 35 42 15 30 20 34 32 24 18 -15 18 -10 5 24 -10 28 -2 34 18
14 9 -9 12 -3 13 27 0 32 2 36 9 20 5 -11 9 -17 11 -12 4 17 6 23 13 40 5 9 6
26 3 37 -3 11 1 21 10 24 8 3 11 11 7 18 -5 7 -2 9 7 6 11 -4 14 3 12 34 -1
28 4 46 17 61 11 11 20 29 20 39 0 10 6 18 14 18 8 0 12 8 9 23 -3 17 3 31 24
48 36 30 48 59 31 71 -9 5 -6 8 8 8 27 0 39 26 16 35 -15 6 -15 8 -2 18 33 26
40 80 40 290 l0 207 -1725 0 -1725 0 0 -37 c0 -20 -7 -44 -16 -54 -12 -14 -13
-22 -5 -38 9 -16 7 -32 -11 -74 -25 -58 -48 -65 -48 -15 0 21 -6 31 -19 35
-20 5 -37 46 -21 51 5 2 6 10 3 18 -3 8 1 22 10 32 9 11 13 29 10 50 l-5 32
-2704 0 -2704 0 0 -1974z m5644 1883 c-3 -5 -10 -7 -15 -3 -5 3 -7 10 -3 15 3
5 10 7 15 3 5 -3 7 -10 3 -15z m35 -80 c15 -17 17 -27 10 -51 -12 -43 17 -86
70 -103 19 -6 21 -14 21 -73 0 -45 -5 -75 -16 -90 -19 -28 -15 -62 10 -76 34
-20 56 -45 56 -66 0 -11 6 -20 14 -20 28 0 45 -39 34 -73 -9 -25 -8 -32 7 -43
18 -13 17 -16 -9 -70 -24 -49 -30 -55 -42 -42 -9 9 -27 13 -44 10 -25 -4 -30
-9 -30 -32 0 -30 -23 -56 -40 -45 -5 3 -10 2 -10 -3 0 -18 29 -21 39 -4 8 14
12 15 22 5 7 -7 23 -13 36 -13 13 0 23 -4 23 -10 0 -5 5 -10 10 -10 6 0 8 15
4 39 -7 45 8 61 34 37 11 -9 27 -13 40 -9 26 6 26 3 9 -40 -16 -39 -16 -159
-1 -164 6 -2 19 -9 28 -16 15 -11 16 -17 5 -40 -8 -18 -20 -27 -35 -27 -20 0
-21 3 -14 34 4 19 5 37 2 40 -12 13 -22 5 -22 -17 0 -13 -5 -28 -12 -35 -9 -9
-9 -15 0 -24 7 -7 12 -18 12 -25 0 -13 -58 -77 -72 -79 -4 -1 -11 -3 -15 -4
-5 -1 -11 -2 -15 -1 -5 0 -8 -6 -8 -14 0 -8 4 -14 9 -12 5 1 8 -2 8 -8 -1 -5
-9 -9 -17 -8 -8 1 -26 -7 -41 -17 -32 -24 -39 -18 -32 25 6 35 -13 58 -28 34
-6 -11 -9 -8 -9 8 0 12 -5 25 -11 29 -6 3 -9 14 -6 25 3 10 -3 25 -13 34 -10
9 -21 28 -24 41 -4 14 -10 23 -15 20 -11 -7 -77 96 -72 114 1 8 -1 11 -5 7 -8
-7 -38 81 -51 147 -5 24 -3 28 11 23 21 -8 46 2 46 19 0 8 7 14 15 14 8 0 15
-5 15 -11 0 -5 4 -8 8 -5 5 3 18 -2 28 -12 28 -24 65 -44 71 -39 3 3 -6 11
-19 18 -31 16 -78 61 -78 74 0 6 -9 18 -19 27 -19 16 -19 17 0 54 21 42 25
123 8 155 -7 13 -18 19 -37 17 -25 -3 -27 0 -34 52 -5 46 -4 57 10 65 27 15
49 15 62 0 6 -7 18 -11 25 -9 8 4 15 -3 17 -18 l3 -23 13 23 c8 13 10 31 6 40
-4 9 -8 23 -10 31 -1 8 -9 18 -16 22 -10 7 -10 14 1 41 7 18 17 56 21 84 7 47
25 94 35 94 2 0 13 -9 24 -21z m3261 -84 c0 -8 -4 -15 -10 -15 -5 0 -10 7 -10
15 0 8 5 15 10 15 6 0 10 -7 10 -15z m-3455 -25 c3 -5 -1 -10 -10 -10 -9 0
-13 5 -10 10 3 6 8 10 10 10 2 0 7 -4 10 -10z m69 -5 c3 -10 -1 -18 -12 -22
-9 -4 -23 -13 -30 -20 -18 -18 -42 -16 -42 3 0 10 6 14 15 10 9 -3 22 5 32 19
21 29 29 31 37 10z m-4738 -208 c4 -26 11 -50 15 -53 5 -3 9 -16 9 -30 0 -14
4 -22 10 -19 10 6 13 -3 35 -119 8 -44 20 -85 26 -90 9 -8 10 -7 4 3 -5 9 -4
12 3 7 7 -4 12 -13 12 -21 0 -8 5 -17 11 -21 8 -4 9 0 4 15 -7 24 0 26 34 7
13 -7 19 -16 13 -20 -17 -11 -12 -76 9 -97 10 -10 15 -19 9 -19 -5 0 -10 -9
-10 -20 0 -11 3 -20 8 -20 4 0 12 -11 19 -25 6 -14 7 -25 2 -25 -13 0 -11 -47
4 -72 14 -25 47 -61 47 -52 0 4 7 1 16 -7 10 -8 13 -21 9 -37 -4 -17 0 -29 16
-43 12 -10 17 -19 11 -19 -7 0 -12 -5 -12 -11 0 -5 5 -7 11 -3 8 5 10 -1 5
-19 -3 -14 -2 -28 4 -32 5 -3 7 -12 3 -20 -3 -8 0 -15 6 -15 6 0 11 -11 11
-24 0 -23 45 -64 58 -52 3 3 -1 6 -8 6 -7 0 -11 2 -8 5 10 10 38 -7 31 -19 -4
-6 5 -3 20 7 31 20 41 22 34 5 -3 -9 6 -13 24 -14 18 -1 29 4 29 12 0 27 21
24 49 -6 23 -26 33 -30 57 -25 40 9 76 27 66 34 -26 18 -79 203 -54 187 7 -4
12 -3 12 3 0 5 -4 12 -8 15 -5 3 -10 27 -11 53 0 26 -4 56 -7 66 -3 11 0 17
10 17 9 0 18 -13 22 -35 3 -20 12 -35 20 -35 8 0 14 -10 14 -25 0 -14 4 -25 9
-25 9 0 27 -40 22 -48 -1 -2 8 -11 20 -21 13 -11 19 -23 15 -30 -6 -9 -12 -7
-23 6 -13 17 -13 16 -4 -4 6 -12 21 -23 33 -25 12 -2 23 -8 25 -15 3 -7 -3 -9
-16 -6 -12 3 -21 1 -21 -5 0 -14 17 -25 22 -13 1 5 14 3 28 -4 l25 -14 -27 -1
c-21 0 -28 -5 -28 -20 0 -11 4 -20 10 -20 5 0 7 7 4 15 -7 17 5 19 26 4 11 -8
12 -12 3 -15 -9 -4 -7 -12 7 -27 23 -24 26 -47 8 -47 -7 0 2 -9 20 -20 21 -13
32 -26 29 -35 -7 -18 14 -64 31 -66 6 -1 17 -3 22 -4 6 -1 16 -3 23 -4 7 -1 8
-4 2 -9 -14 -10 -15 -44 -1 -39 6 2 21 1 33 -4 14 -5 25 -3 33 6 12 14 44 9
35 -6 -3 -4 11 -17 32 -29 21 -11 46 -26 55 -33 14 -9 22 -9 39 1 11 7 24 11
27 7 4 -3 0 -10 -8 -15 -11 -7 -8 -10 11 -14 36 -7 59 -4 60 8 1 6 2 16 4 21
1 6 3 16 3 24 2 10 10 7 30 -12 18 -17 32 -23 41 -18 7 5 11 13 7 19 -9 14 11
25 31 18 11 -5 13 -10 6 -17 -13 -13 -5 -51 9 -43 6 4 13 3 17 -2 3 -5 18 -15
34 -21 27 -13 36 -36 17 -48 -5 -3 -10 -15 -10 -26 0 -11 -7 -19 -17 -19 -31
0 -2 -14 34 -17 45 -3 49 -7 34 -40 -9 -19 -9 -29 -2 -31 6 -2 11 -13 12 -25
0 -12 3 -16 6 -9 5 14 33 17 33 3 0 -5 -5 -11 -12 -13 -24 -8 2 -25 32 -20 21
3 30 10 30 23 0 11 5 19 11 19 6 0 8 -7 5 -16 -3 -9 -3 -14 1 -12 5 2 29 14
55 27 42 22 48 23 62 8 12 -12 13 -17 3 -21 -9 -5 -9 -7 1 -12 25 -12 42 -36
42 -60 0 -13 5 -24 11 -24 5 0 8 -4 5 -9 -4 -5 7 -15 24 -23 17 -7 33 -21 36
-30 5 -17 16 -22 42 -19 6 1 12 -3 12 -9 0 -5 7 -10 15 -10 9 0 15 9 15 25 0
16 6 25 15 25 8 0 15 5 15 10 0 6 9 10 21 10 16 0 19 -4 14 -22 -6 -19 -5 -21
6 -10 17 16 29 15 29 -2 0 -27 25 -37 51 -19 23 16 23 16 10 0 -17 -21 -7 -34
13 -18 15 13 36 7 36 -10 0 -5 -6 -9 -14 -9 -21 0 -30 -20 -17 -33 6 -6 11
-22 12 -36 0 -15 3 -20 6 -13 12 30 73 -6 73 -43 0 -19 36 -34 74 -30 15 2 35
1 44 -3 13 -5 13 -7 -3 -12 -18 -6 -18 -9 8 -32 15 -14 27 -32 27 -39 0 -12 2
-12 9 0 8 12 14 12 43 0 18 -7 38 -13 45 -11 6 1 14 -2 18 -8 3 -5 15 -10 25
-10 10 0 21 -6 24 -12 4 -7 4 -3 2 10 -3 15 1 22 12 22 8 0 12 -3 9 -6 -9 -9
53 -85 63 -79 5 3 14 -4 20 -15 6 -11 22 -23 35 -26 14 -3 25 -10 25 -15 0 -5
16 -9 35 -9 24 0 35 -5 35 -15 0 -8 7 -15 15 -15 8 0 15 4 15 8 0 4 11 9 25
10 20 1 25 -3 25 -21 0 -17 6 -22 28 -24 51 -3 74 -9 81 -22 6 -9 45 -13 132
-14 68 -1 127 -6 130 -11 4 -4 29 -9 55 -10 27 0 52 -5 56 -11 5 -6 15 -5 30
4 16 10 23 10 26 2 7 -22 21 -10 28 24 3 19 11 35 16 35 6 0 7 -7 4 -15 -3 -9
1 -18 9 -21 8 -4 15 -15 15 -26 0 -16 4 -18 22 -12 41 13 118 11 130 -3 16
-20 27 -16 38 13 8 20 16 25 38 22 22 -2 28 1 30 20 4 24 17 29 25 10 2 -7 3
-73 1 -146 -2 -121 -4 -136 -24 -157 -15 -16 -19 -30 -15 -48 4 -16 -1 -39
-14 -65 -16 -32 -25 -39 -41 -35 -15 4 -20 0 -20 -15 0 -14 -5 -19 -17 -16
-16 5 -18 -4 -18 -90 0 -82 -3 -97 -21 -118 -12 -13 -25 -34 -29 -46 -4 -13
-15 -32 -25 -42 -10 -10 -19 -23 -22 -31 -3 -8 -17 1 -41 27 -30 31 -36 44
-31 67 3 16 1 27 -5 27 -6 0 -11 -6 -11 -14 0 -32 -18 -23 -31 16 -7 23 -24
53 -37 67 l-23 25 -6 -23 c-3 -12 -16 -26 -29 -31 -17 -7 -23 -18 -26 -47 -2
-30 -7 -38 -21 -37 -10 1 -29 -9 -43 -23 -17 -17 -32 -23 -46 -20 -16 5 -23
-2 -35 -33 -10 -25 -20 -37 -29 -33 -8 3 -18 -5 -23 -20 -5 -14 -15 -27 -21
-29 -6 -2 -12 -20 -13 -40 -4 -41 -31 -78 -57 -78 -9 0 -26 -11 -38 -25 -13
-14 -33 -25 -47 -25 -14 0 -25 -4 -25 -9 0 -5 -16 -15 -35 -21 -19 -6 -35 -18
-35 -26 0 -7 -18 -25 -39 -40 -37 -24 -43 -25 -91 -15 -62 13 -63 13 -55 1 3
-5 16 -10 27 -10 18 0 15 -5 -18 -30 -35 -26 -47 -29 -112 -30 -40 0 -105 7
-144 16 -39 9 -86 14 -106 10 -21 -3 -45 0 -61 9 -37 19 -197 44 -326 49 -60
3 -157 12 -215 21 -58 9 -152 20 -210 25 -58 5 -121 14 -140 20 -19 6 -60 8
-90 5 -30 -3 -80 -1 -110 6 -30 6 -72 12 -93 13 -21 1 -41 6 -45 11 -4 6 -23
12 -42 13 -19 2 -61 12 -92 23 -32 10 -71 19 -87 19 -16 0 -33 5 -37 12 -4 6
-3 8 3 5 6 -4 24 0 39 8 36 18 48 19 63 1 8 -9 34 -13 88 -11 43 0 84 -3 91
-8 8 -6 12 -5 12 2 0 7 5 9 11 6 6 -4 8 -14 4 -22 -4 -13 -3 -14 10 -3 8 7 38
14 65 16 41 2 50 0 50 -14 1 -15 2 -15 11 1 9 16 19 18 62 12 29 -4 61 -9 72
-12 97 -20 105 -20 105 -7 0 8 7 14 15 14 18 0 20 -17 3 -23 -7 -2 -10 -7 -7
-11 4 -4 31 -1 61 7 29 8 61 13 70 11 9 -1 19 4 22 12 3 8 1 14 -5 14 -6 0 -8
9 -4 19 7 23 -31 88 -58 97 -9 3 -37 24 -60 47 -24 23 -67 64 -96 90 -30 26
-64 63 -77 82 -13 19 -44 54 -70 77 -120 109 -223 222 -224 245 0 4 -16 19
-34 33 -18 13 -42 38 -52 54 -10 17 -23 37 -29 46 -5 8 -22 31 -37 51 -16 20
-28 40 -28 46 0 11 -34 77 -90 173 -21 36 -41 75 -44 88 -4 12 -12 22 -17 22
-5 0 -9 9 -9 19 0 11 -4 22 -9 25 -5 3 -25 41 -45 83 -20 43 -41 85 -46 93 -6
8 -17 31 -26 50 -8 19 -21 47 -29 62 -8 14 -15 35 -15 45 0 11 -6 28 -14 38
-8 11 -12 25 -9 32 3 7 0 13 -7 13 -6 0 -8 -4 -5 -10 3 -5 2 -10 -3 -10 -14 0
-23 43 -10 51 7 4 3 11 -9 18 -11 5 -23 8 -25 6 -3 -3 -13 15 -23 39 -10 25
-21 43 -24 41 -3 -2 -7 8 -7 22 -1 13 -10 33 -20 44 -9 10 -14 19 -11 19 3 0
-6 28 -19 62 -14 34 -23 70 -21 80 3 10 1 16 -4 12 -5 -3 -9 5 -9 18 0 13 -7
32 -15 42 -8 11 -15 28 -15 39 0 11 -4 15 -12 11 -7 -4 -8 -3 -4 5 4 7 4 20 0
29 -4 9 -13 40 -19 67 -7 28 -25 88 -39 135 -69 217 -134 499 -135 587 -1 17
-7 33 -13 36 -10 3 -11 13 -1 48 6 24 10 62 7 84 -11 121 -13 169 -4 155 5 -8
13 -36 16 -63z m8034 43 c0 -5 -4 -10 -10 -10 -5 0 -10 5 -10 10 0 6 5 10 10
10 6 0 10 -4 10 -10z m-2973 -32 c-3 -8 -6 -5 -6 6 -1 11 2 17 5 13 3 -3 4
-12 1 -19z m93 -45 c0 -20 -3 -24 -11 -16 -7 7 -9 19 -6 27 10 24 17 19 17
-11z m-490 -13 c0 -5 -4 -10 -10 -10 -5 0 -10 5 -10 10 0 6 5 10 10 10 6 0 10
-4 10 -10z m3365 -10 c3 -5 1 -10 -4 -10 -6 0 -11 5 -11 10 0 6 2 10 4 10 3 0
8 -4 11 -10z m-3341 -66 c9 -22 8 -24 -9 -24 -8 0 -15 9 -15 20 0 24 15 27 24
4z m-4194 -24 c0 -5 -2 -10 -4 -10 -3 0 -8 5 -11 10 -3 6 -1 10 4 10 6 0 11
-4 11 -10z m4669 -18 c16 -23 18 -35 11 -58 -6 -22 -9 -24 -9 -8 -1 11 -8 29
-16 40 -13 18 -21 54 -11 54 3 0 14 -13 25 -28z m-5015 -109 c7 -28 5 -31 -13
-26 -22 6 -25 21 -14 62 7 27 17 15 27 -36z m7678 -8 c0 -5 -5 -11 -11 -13 -6
-2 -11 4 -11 13 0 9 5 15 11 13 6 -2 11 -8 11 -13z m-2602 -15 c0 -11 -4 -20
-9 -20 -11 0 -22 26 -14 34 12 12 23 5 23 -14z m2730 -35 c0 -8 -4 -15 -10
-15 -5 0 -10 7 -10 15 0 8 5 15 10 15 6 0 10 -7 10 -15z m-190 -25 c0 -5 -5
-10 -11 -10 -5 0 -7 5 -4 10 3 6 8 10 11 10 2 0 4 -4 4 -10z m-6860 -44 c0 -8
-4 -18 -10 -21 -5 -3 -10 3 -10 14 0 12 5 21 10 21 6 0 10 -6 10 -14z m4405
-35 c3 -5 1 -12 -5 -16 -5 -3 -10 1 -10 9 0 18 6 21 15 7z m115 -1 c0 -5 -2
-10 -4 -10 -3 0 -8 5 -11 10 -3 6 -1 10 4 10 6 0 11 -4 11 -10z m-4890 -46 c0
-8 -5 -12 -10 -9 -6 4 -8 11 -5 16 9 14 15 11 15 -7z m4140 1 c0 -8 -2 -15 -4
-15 -2 0 -6 7 -10 15 -3 8 -1 15 4 15 6 0 10 -7 10 -15z m3200 6 c0 -6 -4 -13
-10 -16 -5 -3 -10 1 -10 9 0 9 5 16 10 16 6 0 10 -4 10 -9z m-2440 -11 c0 -5
-4 -10 -10 -10 -5 0 -10 5 -10 10 0 6 5 10 10 10 6 0 10 -4 10 -10z m2140 -35
c0 -8 -4 -15 -9 -15 -13 0 -22 16 -14 24 11 11 23 6 23 -9z m-2243 -23 c7 -9
13 -22 13 -29 0 -14 28 -43 41 -43 5 0 9 6 9 14 0 20 28 28 49 14 21 -13 53
-73 44 -82 -3 -3 -12 1 -19 9 -8 8 -21 12 -29 9 -8 -4 -15 -1 -15 6 0 7 -8 9
-19 5 -11 -3 -22 -1 -26 5 -3 5 -17 7 -31 4 -13 -4 -31 -1 -39 6 -20 16 -46
70 -39 81 3 5 0 9 -6 9 -6 0 -8 5 -4 11 8 14 54 2 71 -19z m-5467 -29 c0 -13
-3 -13 -15 -3 -8 7 -15 16 -15 21 0 5 7 6 15 3 8 -4 15 -13 15 -21z m50 7 c0
-5 -4 -10 -10 -10 -5 0 -10 5 -10 10 0 6 5 10 10 10 6 0 10 -4 10 -10z m745
-20 c-3 -5 -10 -10 -16 -10 -5 0 -9 5 -9 10 0 6 7 10 16 10 8 0 12 -4 9 -10z
m4653 -146 c-15 -32 -29 -17 -35 32 l-4 38 25 -23 c21 -20 23 -27 14 -47z m69
-58 c-7 -20 -27 -17 -27 5 0 12 -7 27 -17 34 -9 7 -13 17 -9 24 9 14 59 -46
53 -63z m113 27 c0 -18 -27 -16 -34 2 -3 8 -3 22 1 31 6 15 8 15 20 -2 7 -10
13 -24 13 -31z m-236 -25 c9 -18 22 -41 29 -51 10 -14 9 -19 -3 -27 -20 -12
-27 -6 -50 46 -30 64 -7 94 24 32z m1446 -18 c0 -11 -2 -20 -4 -20 -2 0 -11
-3 -19 -6 -15 -5 -31 21 -21 37 11 18 44 10 44 -11z m-1930 -10 c0 -5 -4 -10
-10 -10 -5 0 -10 5 -10 10 0 6 5 10 10 10 6 0 10 -4 10 -10z m562 -15 c-6 -32
-20 -32 -18 0 0 14 6 25 12 25 7 0 9 -10 6 -25z m1928 15 c0 -5 -2 -10 -4 -10
-3 0 -8 5 -11 10 -3 6 -1 10 4 10 6 0 11 -4 11 -10z m-1830 -10 c0 -5 -4 -10
-10 -10 -5 0 -10 5 -10 10 0 6 5 10 10 10 6 0 10 -4 10 -10z m-4127 -46 c17
-23 18 -27 2 -50 -13 -20 -19 -22 -35 -14 -13 7 -20 21 -20 41 0 18 4 28 10
24 6 -3 10 1 10 9 0 23 12 19 33 -10z m4112 8 c0 -18 -20 -15 -23 4 -3 10 1
15 10 12 7 -3 13 -10 13 -16z m-4770 -20 c0 -18 -20 -15 -23 4 -3 10 1 15 10
12 7 -3 13 -10 13 -16z m4812 3 c0 -8 -4 -15 -9 -15 -4 0 -8 7 -8 15 0 8 4 15
8 15 5 0 9 -7 9 -15z m1743 6 c0 -6 -4 -13 -10 -16 -5 -3 -10 1 -10 9 0 9 5
16 10 16 6 0 10 -4 10 -9z m-6630 -5 c0 -3 -4 -8 -10 -11 -5 -3 -10 -1 -10 4
0 6 5 11 10 11 6 0 10 -2 10 -4z m4818 -8 c-3 -7 -11 -13 -18 -13 -7 0 -15 6
-17 13 -3 7 4 12 17 12 13 0 20 -5 18 -12z m-212 -33 c-1 -29 -16 -35 -16 -7
0 16 8 32 16 32 1 0 1 -11 0 -25z m188 -1 c9 -3 16 -12 16 -20 0 -7 8 -18 18
-23 9 -6 13 -11 7 -11 -5 0 -4 -4 2 -8 20 -13 21 -56 1 -60 -11 -2 -18 3 -18
12 0 9 -6 13 -14 10 -17 -6 -5 -60 12 -57 6 2 9 -4 6 -12 -4 -10 4 -19 22 -26
16 -6 23 -13 17 -16 -26 -9 -13 -33 17 -33 17 0 30 -4 30 -10 0 -5 -7 -10 -15
-10 -17 0 -20 -16 -5 -25 8 -5 7 -12 -2 -22 -7 -9 -12 -19 -12 -22 2 -11 -8
-31 -15 -31 -4 0 -14 11 -21 25 -7 14 -19 25 -26 25 -6 0 -14 7 -18 15 -3 8
-12 12 -21 9 -11 -5 -15 1 -15 20 0 14 -4 26 -9 26 -4 0 -11 23 -14 51 -5 39
-2 59 10 80 16 26 16 29 -1 48 -17 18 -16 20 6 35 12 9 19 16 15 16 -5 0 -5 5
-2 10 7 12 8 12 29 4z m1091 -84 c3 -5 -1 -10 -10 -10 -9 0 -13 5 -10 10 3 6
8 10 10 10 2 0 7 -4 10 -10z m-933 -45 c0 -5 -5 -11 -11 -13 -6 -2 -11 4 -11
13 0 9 5 15 11 13 6 -2 11 -8 11 -13z m1040 -27 c-9 -9 -12 -7 -12 12 0 19 3
21 12 12 9 -9 9 -15 0 -24z m-1682 8 c0 -15 -24 -28 -34 -19 -7 7 13 33 25 33
5 0 9 -6 9 -14z m867 -28 c-3 -8 -6 -5 -6 6 -1 11 2 17 5 13 3 -3 4 -12 1 -19z
m-937 -33 c0 -8 -4 -15 -10 -15 -5 0 -10 7 -10 15 0 8 5 15 10 15 6 0 10 -7
10 -15z m-3400 -11 c0 -8 -4 -12 -10 -9 -5 3 -10 10 -10 16 0 5 5 9 10 9 6 0
10 -7 10 -16z m-393 -22 c0 -10 -7 -19 -14 -19 -7 0 -13 9 -13 19 0 10 6 18
14 18 8 0 14 -8 13 -18z m256 -12 c3 -11 2 -20 -3 -20 -12 0 -31 26 -23 33 11
12 21 7 26 -13z m4600 0 c3 -11 2 -20 -3 -20 -12 0 -31 26 -23 33 11 12 21 7
26 -13z m-328 0 c3 -5 1 -10 -4 -10 -6 0 -11 5 -11 10 0 6 2 10 4 10 3 0 8 -4
11 -10z m-4290 -70 c3 -5 1 -10 -4 -10 -6 0 -11 5 -11 10 0 6 2 10 4 10 3 0 8
-4 11 -10z m4275 -60 c0 -5 -2 -10 -4 -10 -3 0 -8 5 -11 10 -3 6 -1 10 4 10 6
0 11 -4 11 -10z m-730 -20 c0 -5 -4 -10 -10 -10 -5 0 -10 5 -10 10 0 6 5 10
10 10 6 0 10 -4 10 -10z m740 -23 c0 -7 9 -19 20 -27 11 -8 20 -21 19 -30 0
-10 -2 -11 -6 -2 -2 6 -9 9 -15 6 -14 -9 -51 34 -44 52 7 17 26 19 26 1z
m-810 -87 c0 -5 -4 -10 -10 -10 -5 0 -10 5 -10 10 0 6 5 10 10 10 6 0 10 -4
10 -10z m780 -10 c0 -5 -2 -10 -4 -10 -3 0 -8 5 -11 10 -3 6 -1 10 4 10 6 0
11 -4 11 -10z m-745 -30 c3 -5 -1 -10 -9 -10 -9 0 -16 5 -16 10 0 6 4 10 9 10
6 0 13 -4 16 -10z m-4448 -36 c-9 -9 -27 6 -27 22 0 13 2 13 16 -1 9 -9 14
-18 11 -21z m4246 20 c18 -6 11 -44 -9 -44 -17 0 -25 15 -18 34 7 18 7 18 27
10z m-4117 -207 c1 -9 -1 -16 -4 -16 -19 3 -23 -3 -12 -16 10 -12 10 -15 -2
-15 -8 0 -20 12 -27 27 -10 22 -10 25 2 15 17 -15 31 -3 16 14 -7 9 -6 12 7
10 10 -2 18 -10 20 -19z m1836 -17 c11 0 18 -7 18 -20 0 -23 2 -23 -39 -9 -29
10 -39 27 -24 43 4 3 11 2 17 -4 5 -5 18 -10 28 -10z m-92 0 c0 -5 -4 -10 -10
-10 -5 0 -10 5 -10 10 0 6 5 10 10 10 6 0 10 -4 10 -10z m2495 -30 c3 -5 1
-10 -4 -10 -6 0 -11 5 -11 10 0 6 2 10 4 10 3 0 8 -4 11 -10z m-55 -4 c0 -3
-4 -8 -10 -11 -5 -3 -10 -1 -10 4 0 6 5 11 10 11 6 0 10 -2 10 -4z m-720 -148
c0 -27 4 -47 9 -44 10 7 22 -75 21 -149 -1 -27 -4 -51 -9 -53 -4 -1 -6 -18 -5
-37 2 -19 -1 -35 -7 -35 -6 0 -8 -8 -5 -17 3 -10 2 -24 -3 -31 -9 -15 -16 39
-30 221 -5 59 -11 111 -15 114 -3 3 -6 -3 -6 -15 0 -12 -5 -22 -11 -22 -6 0
-9 7 -6 15 4 8 1 17 -5 21 -7 4 -5 10 6 16 20 11 21 32 1 24 -11 -4 -15 2 -15
21 0 22 2 24 16 12 13 -11 17 -10 25 4 18 32 39 8 39 -45z m195 21 c-6 -19
-14 -104 -15 -162 0 -18 -4 -26 -11 -21 -19 11 3 204 23 204 5 0 6 -9 3 -21z
m130 -27 c-3 -3 -11 0 -18 7 -9 10 -8 11 6 5 10 -3 15 -9 12 -12z m-1835 -6
c0 -11 -19 -15 -25 -6 -3 5 1 10 9 10 9 0 16 -2 16 -4z m1562 -52 c1 -23 0
-40 -4 -38 -3 2 -9 -2 -11 -8 -3 -7 -6 4 -6 24 -1 20 -3 43 -6 51 -4 8 0 14 9
14 10 0 15 -14 18 -43z m278 21 c0 -14 -4 -25 -10 -25 -5 0 -10 11 -10 25 0
14 5 25 10 25 6 0 10 -11 10 -25z m-1310 -85 c0 -5 -4 -10 -10 -10 -5 0 -10 5
-10 10 0 6 5 10 10 10 6 0 10 -4 10 -10z m1161 -127 c-8 -14 -11 -11 -16 19
-4 20 -3 42 1 50 12 19 27 -49 15 -69z m-1071 51 c0 -8 -5 -12 -10 -9 -6 4 -8
11 -5 16 9 14 15 11 15 -7z m727 -71 c-3 -10 -5 -4 -5 12 0 17 2 24 5 18 2 -7
2 -21 0 -30z m-392 -63 c-3 -5 -13 -6 -21 -3 -12 4 -13 8 -3 14 15 9 32 2 24
-11z m1197 -412 c-7 -7 -12 -8 -12 -2 0 14 12 26 19 19 2 -3 -1 -11 -7 -17z
m-3590 -165 c10 -9 18 -22 18 -30 0 -11 -6 -11 -29 3 -17 10 -27 23 -24 31 7
17 13 16 35 -4z m-682 -93 c0 -5 -5 -10 -11 -10 -5 0 -7 5 -4 10 3 6 8 10 11
10 2 0 4 -4 4 -10z m4264 -136 c9 -22 -3 -32 -14 -14 -12 19 -12 30 -1 30 5 0
12 -7 15 -16z m-3734 -18 c0 -3 -4 -8 -10 -11 -5 -3 -10 -1 -10 4 0 6 5 11 10
11 6 0 10 -2 10 -4z m3710 -46 c0 -5 -2 -10 -4 -10 -3 0 -8 5 -11 10 -3 6 -1
10 4 10 6 0 11 -4 11 -10z m57 -8 c1 -10 -5 -19 -13 -19 -14 0 -19 19 -7 30
11 12 19 8 20 -11z m902 -27 c1 -5 -6 -2 -15 7 -10 9 -13 21 -8 29 5 9 9 8 15
-7 4 -10 8 -23 8 -29z m1725 35 c-13 -13 -155 -62 -162 -56 -8 8 120 65 148
66 16 0 21 -3 14 -10z m-159 -19 c-3 -6 -11 -8 -17 -5 -6 4 -5 9 3 15 16 10
23 4 14 -10z m-6445 -23 c0 -10 -36 7 -45 22 -4 6 5 5 19 -2 14 -6 26 -15 26
-20z m3617 -25 c-3 -10 -5 -4 -5 12 0 17 2 24 5 18 2 -7 2 -21 0 -30z m1030
31 c-3 -4 -2 -15 4 -25 5 -11 6 -19 1 -19 -6 0 -12 9 -15 19 -5 19 0 31 11 31
3 0 2 -3 -1 -6z m1756 -5 c-12 -12 -84 -28 -123 -28 -16 1 -7 6 23 14 27 7 51
16 55 19 3 3 17 6 31 6 18 0 22 -3 14 -11z m-6351 -16 c11 -9 18 -11 18 -5 0
7 5 12 10 12 6 0 10 -9 10 -20 0 -11 -3 -20 -7 -20 -12 0 -69 49 -59 50 5 0
18 -7 28 -17z m4928 -9 c0 -21 -17 -17 -23 5 -3 14 -1 18 9 14 8 -3 14 -11 14
-19z m-975 -78 c18 -69 18 -66 2 -66 -9 0 -14 14 -15 38 -1 20 -6 52 -12 71
-6 23 -6 31 0 25 6 -6 17 -36 25 -68z m2238 67 c-7 -2 -19 -2 -25 0 -7 3 -2 5
12 5 14 0 19 -2 13 -5z m-2611 -50 c5 -36 3 -52 -6 -42 -8 10 -14 79 -6 79 4
0 10 -17 12 -37z m1125 5 c-3 -8 -6 -5 -6 6 -1 11 2 17 5 13 3 -3 4 -12 1 -19z
m299 -28 c4 -23 3 -32 -3 -25 -6 6 -13 26 -17 45 -4 23 -3 31 4 24 5 -5 13
-25 16 -44z m-1189 18 c-3 -8 -6 -5 -6 6 -1 11 2 17 5 13 3 -3 4 -12 1 -19z
m1203 -82 c10 -13 10 -17 3 -12 -7 4 -13 4 -14 -1 -4 -38 -1 -102 5 -122 6
-16 5 -21 -3 -17 -7 5 -11 -1 -11 -14 0 -12 5 -18 10 -15 6 3 10 -2 10 -12 -1
-16 -3 -15 -19 5 -14 15 -21 18 -25 10 -3 -7 -3 -2 0 12 4 14 10 27 15 30 5 3
5 29 0 58 -5 32 -4 52 2 52 5 0 6 7 3 16 -5 13 2 42 8 32 1 -2 8 -12 16 -22z
m-231 -29 c1 -5 -3 -5 -9 -2 -5 3 -10 16 -9 28 0 21 1 21 9 2 5 -11 9 -24 9
-28z m-462 11 c-3 -8 -6 -5 -6 6 -1 11 2 17 5 13 3 -3 4 -12 1 -19z m-353 -11
c3 -13 9 -56 12 -95 6 -63 5 -72 -10 -72 -13 0 -15 -4 -7 -19 12 -22 -7 -35
-30 -20 -11 7 -10 9 6 9 17 0 18 2 5 10 -13 9 -13 12 1 23 23 18 32 49 17 59
-9 7 -10 11 -2 14 6 3 9 16 6 29 -2 14 -7 23 -11 20 -4 -2 -7 12 -7 30 1 40
11 46 20 12z m1187 6 c13 -16 12 -17 -3 -4 -10 7 -18 15 -18 17 0 8 8 3 21
-13z m-218 -13 c3 -11 1 -18 -4 -14 -5 3 -9 12 -9 20 0 20 7 17 13 -6z m-246
-12 c-3 -8 -6 -5 -6 6 -1 11 2 17 5 13 3 -3 4 -12 1 -19z m1113 18 c0 -2 -7
-9 -15 -16 -12 -10 -15 -10 -15 4 0 9 7 16 15 16 8 0 15 -2 15 -4z m-530 -26
c0 -5 -2 -10 -4 -10 -3 0 -8 5 -11 10 -3 6 -1 10 4 10 6 0 11 -4 11 -10z
m-583 -47 c-3 -10 -5 -4 -5 12 0 17 2 24 5 18 2 -7 2 -21 0 -30z m-3184 0
c-13 -2 -35 -2 -50 0 -16 2 -5 4 22 4 28 0 40 -2 28 -4z m-476 -24 c-21 -11
-62 -22 -90 -25 l-52 -4 55 13 c30 7 64 18 75 25 11 6 27 11 35 11 8 0 -2 -9
-23 -20z m-2340 -5 c-3 -3 -12 -4 -19 -1 -8 3 -5 6 6 6 11 1 17 -2 13 -5z
m1891 -11 c-10 -2 -26 -2 -35 0 -10 3 -2 5 17 5 19 0 27 -2 18 -5z m57 -13
c-33 -6 -27 -7 35 -8 55 0 68 2 50 9 -21 7 -20 8 9 4 18 -3 59 -5 90 -6 l56
-1 -60 -15 c-62 -16 -103 -17 -193 -7 -48 5 -51 7 -35 20 10 7 34 13 53 12
l35 -1 -40 -7z m-195 -14 c57 -19 33 -19 -45 -2 -41 10 -51 14 -30 15 17 0 50
-6 75 -13z m4730 -11 c0 -3 -9 -5 -20 -5 -11 0 -20 7 -20 15 0 13 4 14 20 5
11 -6 20 -13 20 -15z m-4243 9 c-3 -3 -12 -4 -19 -1 -8 3 -5 6 6 6 11 1 17 -2
13 -5z m-1470 -10 c-3 -3 -12 -4 -19 -1 -8 3 -5 6 6 6 11 1 17 -2 13 -5z m558
-3 c6 -1 -1 -8 -15 -16 -23 -13 -23 -14 -4 -15 11 0 24 -3 28 -7 8 -8 160 -5
190 4 15 4 18 1 13 -11 -8 -20 2 -20 29 -1 21 14 108 17 524 14 193 -2 220 0
220 11 0 5 -15 14 -32 19 -26 8 -19 9 32 4 36 -3 75 -6 88 -5 12 1 22 -3 22
-8 0 -6 30 -11 68 -11 l67 -1 -45 -10 c-25 -5 -69 -14 -97 -19 -51 -10 -72
-28 -35 -30 137 -7 322 17 307 41 -7 11 48 20 134 21 42 0 101 4 131 8 30 5
56 7 58 6 2 -2 -12 -12 -30 -23 -42 -26 -116 -43 -190 -43 -32 0 -60 -5 -64
-10 -3 -5 -2 -9 3 -8 4 1 21 1 36 0 54 -2 17 -18 -58 -24 -45 -4 -92 -15 -115
-27 -85 -43 -42 -54 225 -56 221 -1 332 -9 351 -25 6 -5 18 -7 27 -3 8 3 18 1
21 -5 4 -6 57 -10 132 -10 100 0 133 -4 167 -19 43 -19 74 -48 64 -58 -3 -4 5
-21 18 -38 28 -37 42 -109 51 -261 9 -159 -19 -286 -74 -340 -61 -59 -104 -69
-287 -70 -172 -1 -191 -3 -182 -12 7 -6 -15 -21 -71 -47 -26 -12 -60 -14 -155
-11 -177 6 -280 15 -294 27 -7 5 -21 7 -33 3 -12 -4 -27 -1 -35 5 -8 7 -24 10
-35 7 -11 -3 -23 -1 -26 4 -3 5 -18 9 -35 9 -16 0 -29 4 -29 8 0 5 -18 15 -39
22 -37 12 -104 60 -85 60 19 0 -22 20 -42 20 -12 0 -27 7 -34 15 -7 8 -16 12
-21 9 -5 -3 -9 -2 -8 3 1 4 -2 18 -6 30 -4 12 -6 25 -6 28 1 3 -8 15 -21 25
-13 11 -17 19 -11 20 9 0 10 7 4 23 -15 38 1 206 20 218 6 3 10 25 11 48 0 26
10 60 25 87 15 27 22 51 18 64 -4 12 -2 20 5 20 6 0 21 10 33 23 13 12 36 28
52 36 l30 14 -30 10 c-28 10 -26 11 45 28 41 10 89 19 105 20 17 1 -1 5 -40
10 -89 10 -117 16 -124 28 -11 16 -1412 34 -1428 17 -3 -3 2 -18 10 -35 9 -17
18 -44 22 -61 6 -26 3 -31 -18 -39 -21 -8 -33 -8 -66 -2 -2 1 2 8 9 16 8 10 9
15 2 15 -7 0 -11 32 -11 89 0 64 -5 99 -16 121 -20 39 -15 46 15 20 12 -11 27
-17 32 -14 5 4 8 -4 6 -16 -2 -13 3 -25 11 -28 8 -2 11 0 8 5 -13 20 76 46
161 47 23 0 42 4 42 9 0 5 6 7 14 4 7 -3 18 -1 23 4 19 19 169 31 238 20z
m-405 -16 c-7 -8 -18 -15 -24 -15 -6 0 -2 7 8 15 25 19 32 19 16 0z m2163 8
c-7 -2 -19 -2 -25 0 -7 3 -2 5 12 5 14 0 19 -2 13 -5z m1816 -43 c0 -9 -4 -8
-9 5 -5 11 -9 27 -9 35 0 9 4 8 9 -5 5 -11 9 -27 9 -35z m921 24 c0 -8 -4 -12
-10 -9 -5 3 -10 13 -10 21 0 8 5 12 10 9 6 -3 10 -13 10 -21z m460 -1 c-1 -22
-64 -62 -77 -50 -3 4 -1 7 6 7 15 0 41 25 41 39 0 6 7 11 15 11 8 0 15 -3 15
-7z m-1092 -37 c0 -48 12 -96 23 -96 6 0 7 -5 4 -10 -5 -8 -11 -8 -19 -1 -7 6
-16 8 -19 4 -4 -3 -7 1 -8 10 -1 32 -1 97 1 105 1 4 2 10 1 15 0 4 3 7 8 7 5
0 9 -15 9 -34z m1126 19 c-4 -8 -10 -12 -15 -9 -14 8 -10 24 6 24 9 0 12 -6 9
-15z m-487 -27 c-3 -8 -6 -5 -6 6 -1 11 2 17 5 13 3 -3 4 -12 1 -19z m-397 -8
c0 -5 -4 -10 -10 -10 -5 0 -10 5 -10 10 0 6 5 10 10 10 6 0 10 -4 10 -10z
m690 -11 c0 -6 -4 -7 -10 -4 -5 3 -10 11 -10 16 0 6 5 7 10 4 6 -3 10 -11 10
-16z m-74 -26 c-4 -4 -11 -1 -16 7 -16 25 -11 35 7 17 9 -9 13 -20 9 -24z
m129 10 c-2 -10 -4 -20 -4 -23 -1 -3 -5 2 -10 10 -10 15 -6 30 9 30 4 0 7 -8
5 -17z m-735 -3 c0 -5 -2 -10 -4 -10 -3 0 -8 5 -11 10 -3 6 -1 10 4 10 6 0 11
-4 11 -10z m413 -14 c37 -18 49 -36 23 -36 -8 0 -16 7 -20 15 -3 9 -12 12 -22
8 -11 -4 -15 -3 -10 5 9 15 -13 27 -27 13 -8 -8 -7 -11 3 -11 7 0 10 -3 7 -6
-7 -7 -37 14 -37 25 0 13 45 6 83 -13z m-942 -46 c0 -14 -4 -45 -9 -70 -11
-49 -14 -38 -16 55 0 28 -5 57 -10 65 -5 8 1 6 13 -5 11 -11 21 -32 22 -45z
m564 50 c3 -6 -1 -7 -9 -4 -18 7 -21 14 -7 14 6 0 13 -4 16 -10z m540 0 c8
-13 -5 -13 -25 0 -13 8 -13 10 2 10 9 0 20 -4 23 -10z m-5476 -27 c0 -10 -3
-13 -5 -6 -3 7 -13 9 -22 6 -15 -4 -15 -3 -2 6 22 15 30 14 29 -6z m4986 -23
c7 0 15 -5 17 -12 3 -7 7 -5 11 6 5 12 3 15 -6 10 -9 -5 -9 -4 0 6 18 19 45
-6 38 -34 -5 -19 -5 -19 5 -3 6 9 18 17 27 17 12 0 13 3 4 14 -7 8 -8 17 -3
20 5 3 16 -4 25 -15 20 -23 39 -25 30 -4 -5 14 0 13 30 -2 19 -10 31 -20 26
-21 -5 -2 -6 -9 -2 -15 4 -8 1 -8 -9 1 -13 10 -15 9 -13 -13 4 -29 -11 -32
-37 -8 -14 13 -18 13 -18 2 -1 -10 -5 -8 -16 6 -15 19 -15 18 -9 -17 7 -37 7
-38 -24 -38 -33 0 -38 8 -18 29 10 11 9 13 -1 7 -7 -4 -15 0 -18 9 -5 13 -9
14 -15 4 -4 -7 -3 -19 2 -26 6 -7 8 -17 4 -24 -5 -7 -15 -2 -31 16 -17 20 -21
32 -14 41 7 7 7 13 1 16 -5 1 -12 17 -16 33 -5 24 -4 27 5 13 6 -10 17 -18 25
-18z m243 12 c2 -7 -2 -10 -12 -6 -9 3 -16 11 -16 16 0 13 23 5 28 -10z
m-5223 -63 c1 -22 -4 -39 -10 -39 -6 0 -11 8 -11 18 0 9 -4 32 -8 50 -7 31 -6
32 11 22 12 -8 18 -24 18 -51z m4772 39 c-3 -8 -6 -5 -6 6 -1 11 2 17 5 13 3
-3 4 -12 1 -19z m53 0 c0 -6 -6 -5 -15 2 -8 7 -15 14 -15 16 0 2 7 1 15 -2 8
-4 15 -11 15 -16z m564 6 c4 -10 13 -13 26 -9 15 5 18 3 14 -9 -11 -28 -73 -5
-74 27 0 14 28 7 34 -9z m-71 -11 c-7 -2 -19 -2 -25 0 -7 3 -2 5 12 5 14 0 19
-2 13 -5z m-5743 -7 c0 -3 -4 -8 -10 -11 -5 -3 -10 -1 -10 4 0 6 5 11 10 11 6
0 10 -2 10 -4z m5364 -24 c-1 -7 -2 -19 -2 -27 -2 -15 -33 -21 -46 -8 -4 4
-13 8 -19 9 -7 0 -20 2 -29 2 -29 3 -22 32 7 32 14 0 25 4 25 9 0 5 15 5 33 2
17 -4 32 -12 31 -19z m450 1 c8 3 17 -1 20 -10 4 -11 2 -14 -9 -9 -8 3 -15 1
-15 -4 0 -21 -31 -9 -40 16 -14 36 -13 39 10 19 10 -9 26 -15 34 -12z m81 -79
c5 -65 -10 -64 -19 2 -3 26 -11 53 -17 60 -6 7 -8 18 -4 24 13 21 37 -29 40
-86z m65 11 c0 -19 -4 -35 -10 -35 -5 0 -10 9 -10 19 0 11 -3 26 -6 35 -4 11
-1 16 10 16 12 0 16 -10 16 -35z m154 19 c10 -25 7 -34 -9 -34 -9 0 -15 9 -15
25 0 28 15 34 24 9z m-5784 -24 c0 -5 -4 -10 -10 -10 -5 0 -10 5 -10 10 0 6 5
10 10 10 6 0 10 -4 10 -10z m94 -15 c-4 -8 -8 -15 -10 -15 -2 0 -4 7 -4 15 0
8 4 15 10 15 5 0 7 -7 4 -15z m-464 -15 c0 -5 -2 -10 -4 -10 -3 0 -8 5 -11 10
-3 6 -1 10 4 10 6 0 11 -4 11 -10z m-140 -35 c6 4 18 1 27 -7 15 -11 16 -11 9
7 -4 11 -4 16 0 12 4 -4 13 -2 20 4 18 15 37 1 31 -22 -3 -10 -1 -22 4 -25 5
-3 9 -12 9 -20 0 -13 -6 -12 -34 5 -30 19 -34 20 -40 5 -5 -14 -10 -12 -28 11
-17 22 -23 25 -27 13 -8 -20 -51 -5 -51 17 0 17 16 20 25 5 3 -5 12 -10 18 -9
9 0 9 2 0 6 -7 2 -13 9 -13 15 0 6 9 3 19 -6 11 -10 25 -15 31 -11z m223 5
c-5 -21 11 -28 22 -10 4 7 12 7 25 0 13 -7 20 -6 23 3 3 6 6 0 6 -15 1 -30
-23 -39 -33 -13 -3 8 -10 15 -16 15 -6 0 -8 -5 -4 -11 4 -7 -7 -4 -25 7 -33
20 -38 29 -18 37 22 9 25 7 20 -13z m185 2 c2 -7 -3 -12 -10 -12 -8 0 -15 7
-15 15 0 18 19 15 25 -3z m1091 -56 c17 -33 36 -65 41 -71 5 -7 7 -15 3 -18
-11 -12 -23 -8 -23 8 0 8 -4 15 -8 15 -5 0 -15 19 -22 43 -8 23 -20 51 -27 62
-15 22 -18 44 -4 30 5 -6 23 -37 40 -69z m-1045 48 c9 -23 8 -24 -15 -24 -17
0 -19 3 -10 13 6 8 8 17 4 20 -3 4 -2 7 4 7 6 0 14 -7 17 -16z m749 -27 c-5
-9 -3 -9 8 -1 16 12 59 16 59 6 -1 -19 -28 -34 -42 -22 -2 1 -12 3 -22 5 -11
2 -23 11 -28 20 -5 8 -13 13 -19 10 -5 -4 -9 1 -9 10 0 14 3 14 30 0 19 -10
28 -20 23 -28z m-588 3 c-5 -15 -10 -19 -17 -12 -7 7 -6 15 3 25 18 19 23 14
14 -13z m445 10 c0 -5 -4 -10 -10 -10 -5 0 -10 5 -10 10 0 6 5 10 10 10 6 0
10 -4 10 -10z m-655 -9 c3 -5 1 -12 -4 -15 -5 -3 -11 1 -15 9 -6 16 9 21 19 6z
m-175 -21 c0 -5 -4 -12 -10 -15 -5 -3 -10 -4 -10 -1 0 2 -3 12 -6 20 -5 12 -2
15 10 10 9 -3 16 -10 16 -14z m420 5 c0 -8 -2 -15 -4 -15 -2 0 -6 7 -10 15 -3
8 -1 15 4 15 6 0 10 -7 10 -15z m52 1 c6 4 8 -1 6 -11 -1 -10 -8 -20 -14 -22
-14 -5 -27 25 -17 40 5 8 8 8 11 -1 2 -7 8 -9 14 -6z m151 -1 c9 -8 17 -20 20
-27 3 -9 10 -6 21 9 11 14 25 21 41 19 37 -4 39 -11 10 -40 -21 -21 -30 -24
-45 -16 -21 11 -34 -1 -36 -32 -3 -42 -3 -43 -16 -30 -8 8 -9 18 0 36 9 20 6
30 -14 60 -19 27 -21 36 -10 36 8 0 21 -7 29 -15z m747 -65 c8 -5 12 -11 9
-14 -3 -3 -14 1 -25 9 -21 16 -8 20 16 5z m4535 0 c3 -5 1 -10 -4 -10 -6 0
-11 5 -11 10 0 6 2 10 4 10 3 0 8 -4 11 -10z m-444 -323 c-5 -120 -12 -201
-20 -216 l-13 -23 -16 24 c-14 19 -17 52 -17 208 0 116 4 196 12 215 6 17 14
39 18 50 6 17 10 14 26 -23 17 -39 18 -59 10 -235z m-1871 -239 c0 -5 -9 -3
-20 4 -11 7 -20 16 -20 20 0 5 9 3 20 -4 11 -7 20 -16 20 -20z m-410 -128 c0
-5 -4 -10 -10 -10 -5 0 -10 5 -10 10 0 6 5 10 10 10 6 0 10 -4 10 -10z m3655
-20 c3 -5 1 -10 -4 -10 -6 0 -11 5 -11 10 0 6 2 10 4 10 3 0 8 -4 11 -10z
m-3610 -10 c-3 -5 -10 -10 -16 -10 -5 0 -9 5 -9 10 0 6 7 10 16 10 8 0 12 -4
9 -10z m415 -10 c0 -5 -7 -7 -15 -4 -8 4 -15 8 -15 10 0 2 7 4 15 4 8 0 15 -4
15 -10z m3225 -10 c-3 -5 -10 -10 -16 -10 -5 0 -9 5 -9 10 0 6 7 10 16 10 8 0
12 -4 9 -10z m-4355 -21 c0 -6 -4 -7 -10 -4 -5 3 -10 11 -10 16 0 6 5 7 10 4
6 -3 10 -11 10 -16z m-2315 -99 c3 -5 1 -10 -4 -10 -6 0 -11 5 -11 10 0 6 2
10 4 10 3 0 8 -4 11 -10z m-510 -49 c3 -5 1 -12 -5 -16 -5 -3 -10 1 -10 9 0
18 6 21 15 7z m635 -33 c0 -12 -28 -9 -36 3 -3 6 0 15 7 20 13 7 28 -5 29 -23z
m6808 16 c25 -5 35 -16 60 -68 16 -33 39 -90 52 -126 12 -36 26 -74 31 -85 34
-77 37 -188 7 -250 -18 -36 -28 -46 -55 -51 -19 -4 -39 -2 -47 5 -7 6 -32 12
-55 13 -22 1 -41 6 -41 11 0 5 -7 7 -15 3 -8 -3 -27 6 -41 19 -15 14 -33 25
-41 25 -21 0 -93 52 -93 68 0 7 -9 20 -20 29 -11 10 -20 21 -20 26 0 5 -9 20
-19 33 -16 20 -19 38 -16 97 1 39 8 85 14 101 l12 29 20 -21 c27 -30 47 -28
55 6 15 67 27 93 55 113 27 19 33 20 61 8 28 -11 33 -11 42 4 12 19 12 19 54
11z m-6662 -96 c10 -16 -3 -20 -17 -5 -14 14 -22 17 -39 17 -5 0 -10 4 -10 9
0 12 57 -6 66 -21z m-186 -8 c0 -5 -4 -10 -10 -10 -5 0 -10 5 -10 10 0 6 5 10
10 10 6 0 10 -4 10 -10z m3053 -18 c2 7 8 9 13 5 9 -9 -16 -28 -30 -24 -6 2
-12 10 -15 18 -3 12 -2 12 11 1 13 -10 17 -10 21 0z m-623 -46 c0 -2 -6 -9
-14 -15 -11 -9 -16 -9 -22 0 -4 8 -3 9 4 5 7 -4 12 -2 12 3 0 6 5 11 10 11 6
0 10 -2 10 -4z m-210 -36 c0 -5 -2 -10 -4 -10 -3 0 -8 5 -11 10 -3 6 -1 10 4
10 6 0 11 -4 11 -10z m-2810 -14 c0 -3 -4 -8 -10 -11 -5 -3 -10 -1 -10 4 0 6
5 11 10 11 6 0 10 -2 10 -4z m802 -11 c0 -5 -5 -11 -11 -13 -6 -2 -11 4 -11
13 0 9 5 15 11 13 6 -2 11 -8 11 -13z m264 -35 c11 -10 14 -9 14 4 0 9 5 16
11 16 6 0 9 -7 5 -15 -3 -9 3 -23 14 -32 11 -10 20 -22 20 -27 0 -5 -8 -2 -17
6 -10 9 -28 19 -40 22 -13 4 -23 11 -23 16 0 5 -12 10 -27 12 -35 4 -43 28 -9
28 14 0 27 6 27 13 1 6 4 2 6 -10 2 -12 11 -27 19 -33z m1794 29 c0 -6 -4 -7
-10 -4 -5 3 -10 11 -10 16 0 6 5 7 10 4 6 -3 10 -11 10 -16z m-2770 1 c0 -5
-5 -10 -11 -10 -5 0 -7 5 -4 10 3 6 8 10 11 10 2 0 4 -4 4 -10z m769 -16 c-6
-8 -15 -14 -20 -14 -14 0 -11 28 4 33 20 7 29 -4 16 -19z m-300 -38 c10 -39 8
-43 -29 -51 -16 -4 -38 -17 -47 -29 -18 -23 -43 -24 -43 -3 0 7 9 18 20 25 11
7 20 22 21 35 0 12 3 16 6 10 2 -7 13 -13 22 -13 15 0 18 7 15 34 -3 44 22 39
35 -8z m6231 34 c12 -8 12 -10 -3 -16 -9 -3 -30 -4 -45 -1 -15 3 -43 8 -62 12
-19 4 -37 9 -39 11 -9 9 135 3 149 -6z m-5786 -36 c20 -3 36 -10 36 -14 0 -8
33 -23 52 -25 3 0 9 -3 13 -7 4 -4 13 -4 21 -1 8 3 14 0 14 -6 0 -6 -7 -11
-15 -11 -18 0 -20 -16 -2 -23 10 -4 10 -6 0 -6 -7 -1 -22 8 -33 19 -24 24 -31
25 -24 5 7 -18 0 -19 -27 -5 -10 6 -19 21 -19 33 -1 21 -1 21 -11 3 -11 -17
-13 -17 -36 10 -16 19 -26 25 -29 17 -3 -7 -13 -13 -22 -13 -13 0 -12 3 4 19
10 11 24 18 31 16 6 -2 28 -7 47 -11z m-104 -14 c0 -5 -4 -10 -10 -10 -5 0
-10 5 -10 10 0 6 5 10 10 10 6 0 10 -4 10 -10z m-203 -35 c0 -8 -4 -12 -9 -9
-5 3 -6 10 -3 15 9 13 12 11 12 -6z m616 -30 c-5 -13 -23 -22 -23 -11 0 15 14
35 21 31 4 -3 6 -12 2 -20z m-563 5 c0 -5 -4 -10 -10 -10 -5 0 -10 5 -10 10 0
6 5 10 10 10 6 0 10 -4 10 -10z m440 -28 c0 -13 -3 -12 -15 4 -19 25 -19 40 0
24 8 -7 15 -20 15 -28z m167 2 c-3 -3 -12 -4 -19 -1 -8 3 -5 6 6 6 11 1 17 -2
13 -5z m286 -21 c3 -5 -1 -13 -8 -20 -10 -9 -14 -8 -18 8 -5 18 16 28 26 12z
m-283 -13 c0 -5 -2 -10 -4 -10 -3 0 -8 5 -11 10 -3 6 -1 10 4 10 6 0 11 -4 11
-10z m-294 -37 c-11 -11 -17 4 -9 23 7 18 8 18 11 1 2 -10 1 -21 -2 -24z
m-712 21 c13 -5 14 -9 5 -20 -8 -10 -8 -14 0 -14 21 0 91 -35 91 -45 -1 -17
-28 -47 -38 -41 -5 3 -10 0 -9 -7 1 -42 -4 -59 -17 -54 -7 3 -19 0 -25 -6 -9
-9 -17 -5 -34 13 -36 41 -35 104 4 118 19 8 19 8 -1 29 -11 12 -20 25 -20 28
0 7 25 6 44 -1z m2306 -9 c11 -13 10 -14 -4 -9 -9 3 -16 10 -16 15 0 13 6 11
20 -6z m-2387 -10 c-3 -9 -8 -14 -10 -11 -3 3 -2 9 2 15 9 16 15 13 8 -4z
m1401 -24 c-3 -3 -9 1 -14 9 -8 13 -10 13 -10 1 0 -8 -3 -12 -6 -8 -4 3 -3 14
0 24 7 17 8 17 22 -1 7 -11 11 -22 8 -25z m-1364 -6 c0 -8 -7 -15 -15 -15 -8
0 -15 -5 -15 -11 0 -5 6 -7 13 -3 9 5 9 4 0 -6 -14 -16 -18 -13 -27 17 -5 16
-2 23 11 26 31 8 33 7 33 -8z m710 -26 c11 -19 10 -20 -9 -9 -22 11 -29 30
-11 30 5 0 14 -9 20 -21z m757 5 c-3 -3 -12 -4 -19 -1 -8 3 -5 6 6 6 11 1 17
-2 13 -5z m-63 -20 c13 -35 7 -45 -29 -42 -19 1 -34 7 -32 13 2 5 12 9 21 9
10 -1 16 6 16 17 0 23 16 25 24 3z m122 -9 c5 -11 10 -12 24 -3 22 14 53 -11
40 -32 -6 -10 -14 -9 -41 4 -32 16 -34 16 -46 -1 -12 -16 -13 -16 -14 3 0 10
-3 13 -6 6 -2 -6 -9 -9 -15 -6 -7 5 -9 -3 -4 -22 7 -27 6 -28 -7 -10 -18 25
-10 56 14 56 11 0 19 5 19 10 0 16 30 12 36 -5z m204 -114 c0 -8 7 -22 16 -32
15 -17 14 -17 -23 -13 -51 6 -73 13 -73 24 0 6 11 5 26 0 52 -20 56 -11 14 43
-22 30 -40 60 -40 67 0 17 79 -71 80 -89z m-1385 80 c3 -5 1 -12 -5 -16 -5 -3
-10 1 -10 9 0 18 6 21 15 7z m3512 -37 c-3 -3 -12 -4 -19 -1 -8 3 -5 6 6 6 11
1 17 -2 13 -5z m-3407 -19 c0 -8 -4 -15 -10 -15 -5 0 -7 7 -4 15 4 8 8 15 10
15 2 0 4 -7 4 -15z m985 5 c3 -5 12 -7 21 -3 8 3 22 -1 32 -9 27 -22 101 -56
177 -82 48 -16 73 -30 80 -45 11 -24 27 -29 18 -5 -5 14 0 16 30 12 19 -2 33
0 31 4 -3 4 -1 8 5 8 6 0 15 -9 21 -20 13 -25 32 -27 23 -2 -11 26 -46 52 -65
48 -29 -7 -31 13 -2 20 19 5 29 2 36 -10 5 -9 16 -16 24 -16 8 0 12 5 9 10 -3
6 3 10 14 10 12 0 21 -4 21 -10 0 -5 7 -7 15 -4 8 4 15 2 15 -4 0 -14 -27 -23
-47 -15 -18 7 -13 -7 15 -39 7 -9 11 -21 8 -27 -4 -6 -2 -19 4 -30 13 -25 2
-32 -57 -36 -25 -2 -50 -8 -56 -14 -15 -15 -27 -14 -27 3 0 15 -46 10 -56 -6
-6 -10 -54 37 -54 53 0 6 -7 3 -16 -5 -18 -19 -36 -12 -27 10 4 12 0 14 -21 8
-29 -7 -35 6 -11 26 17 14 20 40 6 40 -5 0 -11 -10 -13 -22 -4 -26 -41 -34
-62 -13 -17 18 -10 56 10 48 8 -3 14 -9 14 -15 0 -5 5 -6 10 -3 8 5 8 11 1 19
-6 7 -8 16 -5 19 3 3 -9 13 -27 21 -19 9 -41 20 -49 26 -8 5 -27 14 -42 20
-16 5 -28 16 -28 25 0 17 16 20 25 5z m2478 3 c-7 -2 -19 -2 -25 0 -7 3 -2 5
12 5 14 0 19 -2 13 -5z m47 -18 c0 -8 -2 -15 -4 -15 -2 0 -6 7 -10 15 -3 8 -1
15 4 15 6 0 10 -7 10 -15z m46 1 c3 -8 13 -13 22 -11 10 1 11 0 3 -3 -11 -3
-9 -8 8 -22 13 -9 22 -21 20 -26 -2 -5 -23 10 -47 34 -26 26 -36 42 -27 42 9
0 18 -6 21 -14z m-3238 -17 c-21 -14 -48 -11 -42 5 3 8 15 11 30 8 19 -3 22
-7 12 -13z m-278 -14 c0 -8 -4 -15 -10 -15 -5 0 -7 7 -4 15 4 8 8 15 10 15 2
0 4 -7 4 -15z m370 0 c0 -8 -5 -15 -10 -15 -6 0 -20 -9 -32 -20 -26 -24 -34
-25 -42 -5 -3 9 0 15 9 15 8 0 15 5 15 11 0 7 -11 9 -27 5 -28 -5 -28 -5 2 9
41 19 85 19 85 0z m484 -1 c9 -24 8 -26 -14 -14 -11 6 -18 15 -15 21 9 14 22
11 29 -7z m-414 -4 c-20 -13 -33 -13 -25 0 3 6 14 10 23 10 15 0 15 -2 2 -10z
m3358 -77 c7 -20 7 -35 1 -38 -5 -4 -9 3 -9 14 0 11 -7 26 -15 35 -8 8 -15 25
-15 38 0 22 0 22 13 3 8 -11 19 -35 25 -52z m-2865 32 c-7 -21 -13 -19 -13 6
0 11 4 18 10 14 5 -3 7 -12 3 -20z m2736 -1 c2 -2 -10 -4 -27 -4 -18 0 -32 5
-32 10 0 9 47 4 59 -6z m41 6 c0 -5 -4 -10 -9 -10 -6 0 -13 5 -16 10 -3 6 1
10 9 10 9 0 16 -4 16 -10z m-1663 -12 c39 -14 42 -22 8 -24 -14 -1 -25 2 -25
6 0 5 -12 13 -27 18 -21 8 -23 11 -9 11 11 1 35 -4 53 -11z m1467 -20 c8 -13
7 -21 -2 -30 -9 -9 -16 -7 -32 10 -22 24 -18 45 7 40 9 -2 21 -11 27 -20z
m-1997 1 c-14 -8 -22 -8 -30 0 -8 8 -3 11 19 11 25 -1 27 -2 11 -11z m-52 -19
c3 -5 -1 -10 -10 -10 -9 0 -13 5 -10 10 3 6 8 10 10 10 2 0 7 -4 10 -10z m710
-20 c16 -16 30 -28 33 -26 2 3 17 0 33 -6 26 -9 35 -25 29 -53 -1 -5 2 -7 6
-3 4 4 13 3 21 -3 9 -9 13 -8 13 0 0 6 7 11 15 11 11 0 12 -5 6 -23 -10 -27 7
-57 33 -57 24 0 20 -17 -6 -26 -13 -4 -24 -2 -26 5 -2 6 -10 11 -19 11 -10 0
-12 6 -8 20 5 15 2 20 -12 20 -11 0 -25 15 -38 42 -11 23 -27 44 -35 46 -13 5
-13 3 -1 -12 8 -9 11 -20 7 -24 -4 -4 -15 4 -25 17 -12 15 -23 21 -31 16 -8
-5 -11 -4 -6 3 3 6 -1 17 -9 25 -8 9 -15 20 -15 26 0 5 -8 12 -17 14 -15 4
-14 5 3 6 11 0 33 -12 49 -29z m-595 0 c-8 -5 -2 -10 15 -14 14 -4 30 -4 35
-1 6 4 10 -2 11 -12 0 -10 3 -13 6 -5 2 6 16 12 29 12 17 0 24 -6 24 -20 0
-11 5 -20 11 -20 6 0 9 7 5 15 -8 21 6 19 32 -5 12 -11 26 -20 32 -20 5 0 27
-9 48 -21 l37 -21 -37 4 c-29 3 -38 0 -41 -14 -7 -24 -27 -23 -27 2 0 11 -5
20 -11 20 -5 0 -7 -4 -4 -10 12 -19 -17 -10 -53 17 -20 16 -39 31 -42 34 -3 4
-16 10 -30 14 -14 4 -28 12 -32 18 -4 8 -11 7 -20 0 -7 -6 -28 -13 -46 -16
-27 -5 -31 -3 -22 8 6 8 21 15 33 17 14 2 21 9 19 20 -2 12 3 15 19 11 14 -4
17 -8 9 -13z m2160 10 c0 -5 -2 -10 -4 -10 -3 0 -8 5 -11 10 -3 6 -1 10 4 10
6 0 11 -4 11 -10z m-2249 -23 c-10 -9 -11 -8 -5 6 3 10 9 15 12 12 3 -3 0 -11
-7 -18z m-1524 -41 c-1 -16 -8 -31 -16 -34 -10 -3 -12 0 -8 12 4 10 2 26 -3
37 -9 15 -15 17 -30 9 -15 -8 -20 -8 -20 3 0 22 8 25 44 13 29 -9 34 -14 33
-40z m3749 25 c23 -32 8 -39 -22 -10 -14 13 -29 23 -32 21 -4 -2 -8 1 -10 7
-6 19 49 4 64 -18z m97 -24 c18 -11 27 -26 27 -43 0 -16 8 -28 23 -34 21 -9
21 -9 -4 -9 -27 -1 -39 14 -39 50 0 10 -3 18 -7 17 -17 -5 -53 28 -53 47 1 17
2 18 13 5 7 -8 24 -23 40 -33z m-1513 -18 c0 -6 -4 -7 -10 -4 -5 3 -10 11 -10
16 0 6 5 7 10 4 6 -3 10 -11 10 -16z m-2244 -38 c8 -30 7 -42 -4 -57 -13 -18
-14 -17 -10 8 3 15 2 29 -2 30 -4 2 -10 15 -14 31 -11 44 18 33 30 -12z m3749
9 c3 -5 1 -10 -4 -10 -6 0 -11 5 -11 10 0 6 2 10 4 10 3 0 8 -4 11 -10z
m-1589 -26 c-3 -15 -8 -29 -11 -32 -3 -3 -3 5 -1 19 2 13 5 27 5 32 1 4 3 7 6
7 3 0 3 -12 1 -26z m271 -11 c3 -10 13 -26 21 -35 14 -16 13 -18 -1 -18 -10 0
-17 7 -17 15 0 9 -6 12 -15 9 -8 -4 -15 -1 -15 6 0 6 -6 8 -12 5 -7 -4 -5 0 4
8 10 8 15 17 11 20 -3 4 -1 7 6 7 6 0 14 -8 18 -17z m1333 -14 c0 -6 -4 -7
-10 -4 -5 3 -10 11 -10 16 0 6 5 7 10 4 6 -3 10 -11 10 -16z m-1828 -29 c14 0
18 -5 14 -15 -3 -8 -1 -15 4 -15 6 0 10 -7 10 -16 0 -9 -7 -14 -17 -12 -11 2
-17 11 -15 21 2 13 -4 17 -28 17 -20 0 -30 5 -30 15 0 8 7 15 15 15 8 0 16 6
16 13 1 6 3 4 6 -5 2 -10 14 -18 25 -18z m277 17 c6 -8 8 -17 5 -20 -7 -7 -44
14 -44 25 0 13 27 9 39 -5z m482 -29 c6 -10 6 -18 1 -18 -6 0 -12 10 -15 21
-4 15 -11 20 -21 16 -16 -6 -22 4 -9 16 8 8 31 -10 44 -35z m1128 0 c17 -23
31 -49 31 -57 -1 -13 -2 -13 -11 2 -6 9 -14 15 -18 13 -4 -3 -18 4 -30 16 -18
16 -20 23 -10 29 10 6 10 10 0 23 -8 9 -9 16 -3 16 6 0 24 -19 41 -42z m-3872
17 c0 -8 -4 -12 -9 -9 -4 3 -8 9 -8 15 0 5 4 9 8 9 5 0 9 -7 9 -15z m1580 9
c-3 -3 -12 -4 -19 -1 -8 3 -5 6 6 6 11 1 17 -2 13 -5z m40 -26 c-3 -8 -6 -5
-6 6 -1 11 2 17 5 13 3 -3 4 -12 1 -19z m442 -18 c6 0 10 4 9 9 -3 9 2 11 25
11 9 0 8 -3 -2 -9 -7 -5 -10 -14 -7 -20 10 -15 27 -14 24 2 -2 6 3 11 10 9 18
-3 92 -51 92 -59 0 -4 -5 -2 -12 5 -7 7 -23 12 -37 12 l-26 -1 28 -15 c15 -8
27 -17 27 -20 0 -3 -16 3 -36 15 -42 25 -41 25 -41 6 0 -8 4 -15 8 -15 5 0 13
-9 20 -21 10 -19 9 -20 -13 -14 -32 10 -51 35 -37 51 8 9 4 16 -13 25 -13 8
-27 13 -32 14 -5 0 -13 11 -17 25 -8 22 -8 23 5 8 7 -10 18 -18 25 -18z m156
20 c3 -5 1 -10 -4 -10 -6 0 -11 5 -11 10 0 6 2 10 4 10 3 0 8 -4 11 -10z m260
-20 c9 -18 11 -30 5 -30 -6 0 -14 8 -17 18 -4 9 -14 22 -22 29 -14 11 -14 12
1 13 10 0 24 -13 33 -30z m85 10 c18 -12 2 -12 -25 0 -13 6 -15 9 -5 9 8 0 22
-4 30 -9z m1160 0 c0 -5 -7 -7 -15 -4 -8 4 -15 8 -15 10 0 2 7 4 15 4 8 0 15
-4 15 -10z m-1338 -12 c7 -18 -2 -39 -13 -32 -12 7 -12 44 0 44 5 0 11 -6 13
-12z m1544 -5 c18 -24 17 -43 -1 -43 -8 0 -15 5 -15 10 0 6 5 10 12 10 6 0 3
9 -7 20 -10 11 -15 20 -10 20 4 0 14 -8 21 -17z m-146 -3 c0 -5 -4 -10 -10
-10 -5 0 -10 5 -10 10 0 6 5 10 10 10 6 0 10 -4 10 -10z m-1713 -46 c-2 -2
-12 -2 -21 2 -13 5 -14 9 -5 21 11 12 14 12 22 -2 5 -9 7 -19 4 -21z m-380 -6
c-3 -8 -6 -5 -6 6 -1 11 2 17 5 13 3 -3 4 -12 1 -19z m75 -8 c3 -25 2 -30 -7
-30 -5 0 -11 9 -11 20 -1 20 15 29 18 10z m478 0 c0 -5 -4 -10 -10 -10 -5 0
-10 5 -10 10 0 6 5 10 10 10 6 0 10 -4 10 -10z m4236 -27 c-6 -6 -36 9 -36 18
0 5 9 4 20 -3 10 -7 18 -14 16 -15z m-4393 -8 c-7 -21 -13 -19 -13 6 0 11 4
18 10 14 5 -3 7 -12 3 -20z m-263 -15 c0 -5 -4 -10 -10 -10 -5 0 -10 5 -10 10
0 6 5 10 10 10 6 0 10 -4 10 -10z m365 -18 c-3 -3 -11 0 -18 7 -9 10 -8 11 6
5 10 -3 15 -9 12 -12z m1695 -12 c0 -5 -5 -10 -11 -10 -5 0 -7 5 -4 10 3 6 8
10 11 10 2 0 4 -4 4 -10z m-2010 -26 c0 -8 -5 -12 -10 -9 -6 4 -8 11 -5 16 9
14 15 11 15 -7z m436 -13 c1 -6 0 -8 -2 -3 -3 5 -16 7 -29 4 -14 -2 -25 0 -25
5 0 13 54 8 56 -6z m1734 3 c0 -8 -4 -12 -10 -9 -5 3 -10 10 -10 16 0 5 5 9
10 9 6 0 10 -7 10 -16z m-1636 -9 c-4 -8 -10 -15 -15 -15 -5 0 -9 7 -9 15 0 8
7 15 15 15 9 0 12 -6 9 -15z m1461 -5 c3 -6 -1 -7 -9 -4 -18 7 -21 14 -7 14 6
0 13 -4 16 -10z m215 0 c8 -5 12 -11 9 -14 -3 -3 -14 1 -25 9 -21 16 -8 20 16
5z m-1040 -4 c0 -3 -4 -8 -10 -11 -5 -3 -10 -1 -10 4 0 6 5 11 10 11 6 0 10
-2 10 -4z m50 -22 c0 -2 -7 -4 -15 -4 -8 0 -15 4 -15 10 0 5 7 7 15 4 8 -4 15
-8 15 -10z"/>
<path d="M5710 6443 c0 -9 -10 -28 -22 -41 -16 -17 -19 -26 -10 -29 6 -3 12
-12 12 -22 0 -26 29 -61 45 -55 9 4 15 0 15 -10 0 -9 5 -16 10 -16 13 0 13 27
-1 32 -5 2 -12 34 -15 73 -3 38 -7 72 -10 77 -9 14 -24 9 -24 -9z"/>
<path d="M850 6308 c0 -10 -5 -18 -10 -18 -16 0 0 -73 19 -87 24 -17 32 -5 25
34 -8 44 -34 97 -34 71z"/>
<path d="M890 6083 c0 -21 3 -24 9 -14 5 8 7 20 4 28 -8 21 -13 15 -13 -14z"/>
<path d="M1475 5549 c-4 -6 -4 -13 -1 -16 3 -3 -2 -12 -12 -19 -16 -12 -15
-13 4 -14 21 0 34 17 34 46 0 16 -16 19 -25 3z"/>
<path d="M1416 5541 c-3 -5 3 -11 14 -14 21 -5 32 1 24 14 -7 12 -31 11 -38 0z"/>
<path d="M2240 5220 c0 -5 4 -10 9 -10 6 0 13 5 16 10 3 6 -1 10 -9 10 -9 0
-16 -4 -16 -10z"/>
<path d="M3240 4550 c0 -5 5 -10 11 -10 5 0 7 5 4 10 -3 6 -8 10 -11 10 -2 0
-4 -4 -4 -10z"/>
<path d="M4065 4280 c3 -5 8 -10 11 -10 2 0 4 5 4 10 0 6 -5 10 -11 10 -5 0
-7 -4 -4 -10z"/>
<path d="M2380 3370 c-13 -8 -12 -10 3 -10 9 0 17 5 17 10 0 12 -1 12 -20 0z"/>
<path d="M1578 3353 c7 -3 16 -2 19 1 4 3 -2 6 -13 5 -11 0 -14 -3 -6 -6z"/>
<path d="M3276 3201 c-7 -10 27 -21 64 -21 l25 1 -25 14 c-29 16 -56 19 -64 6z"/>
<path d="M1418 3023 c7 -3 16 -2 19 1 4 3 -2 6 -13 5 -11 0 -14 -3 -6 -6z"/>
<path d="M2480 2960 c-24 -8 -23 -8 8 -9 20 -1 31 3 27 9 -3 6 -7 10 -8 9 -1
-1 -13 -5 -27 -9z"/>
<path d="M1648 2953 c7 -3 16 -2 19 1 4 3 -2 6 -13 5 -11 0 -14 -3 -6 -6z"/>
<path d="M1698 2953 c12 -2 32 -2 45 0 12 2 2 4 -23 4 -25 0 -35 -2 -22 -4z"/>
<path d="M1000 2912 c0 -4 17 -6 38 -4 64 6 69 10 15 11 -29 0 -53 -3 -53 -7z"/>
<path d="M115 2660 c3 -5 8 -10 11 -10 2 0 4 5 4 10 0 6 -5 10 -11 10 -5 0 -7
-4 -4 -10z"/>
<path d="M1925 920 c-3 -5 -1 -10 4 -10 6 0 11 5 11 10 0 6 -2 10 -4 10 -3 0
-8 -4 -11 -10z"/>
<path d="M1993 886 c0 -11 4 -12 18 -3 14 9 22 8 31 -1 17 -17 29 -15 22 3 -8
20 -71 21 -71 1z"/>
<path d="M2075 845 l-30 -14 45 3 c25 2 52 5 60 5 13 1 13 2 0 11 -20 13 -38
11 -75 -5z"/>
<path d="M2578 783 c7 -3 16 -2 19 1 4 3 -2 6 -13 5 -11 0 -14 -3 -6 -6z"/>
<path d="M6570 5391 c0 -6 5 -13 10 -16 6 -3 10 1 10 9 0 9 -4 16 -10 16 -5 0
-10 -4 -10 -9z"/>
<path d="M6440 4980 c0 -5 5 -10 11 -10 5 0 7 5 4 10 -3 6 -8 10 -11 10 -2 0
-4 -4 -4 -10z"/>
<path d="M6415 4941 c-3 -5 1 -22 8 -39 9 -23 15 -27 24 -17 21 23 19 47 -4
56 -12 4 -25 4 -28 0z"/>
<path d="M6340 4670 c0 -5 5 -10 11 -10 5 0 7 5 4 10 -3 6 -8 10 -11 10 -2 0
-4 -4 -4 -10z"/>
<path d="M5122 4410 c0 -14 2 -19 5 -12 2 6 2 18 0 25 -3 6 -5 1 -5 -13z"/>
<path d="M5121 4368 c-1 -23 15 -32 23 -12 3 8 2 13 -3 9 -5 -3 -12 1 -14 7
-4 8 -6 7 -6 -4z"/>
<path d="M5261 3704 c0 -11 3 -14 6 -6 3 7 2 16 -1 19 -3 4 -6 -2 -5 -13z"/>
<path d="M5030 3641 c0 -6 4 -13 10 -16 6 -3 7 1 4 9 -7 18 -14 21 -14 7z"/>
<path d="M5467 3553 c-4 -3 -7 -13 -7 -22 1 -13 3 -13 11 2 11 19 8 33 -4 20z"/>
<path d="M6325 3530 c3 -5 8 -10 11 -10 2 0 4 5 4 10 0 6 -5 10 -11 10 -5 0
-7 -4 -4 -10z"/>
<path d="M6190 3270 c0 -5 5 -10 11 -10 5 0 7 5 4 10 -3 6 -8 10 -11 10 -2 0
-4 -4 -4 -10z"/>
<path d="M7468 3183 c7 -3 16 -2 19 1 4 3 -2 6 -13 5 -11 0 -14 -3 -6 -6z"/>
<path d="M6852 3131 c4 -13 18 -16 19 -4 0 4 -5 9 -11 12 -7 2 -11 -2 -8 -8z"/>
<path d="M7495 3106 c-30 -13 -30 -13 28 -17 31 -2 57 -1 57 4 0 4 -15 7 -32
8 -31 1 -32 1 -8 9 20 7 21 8 5 9 -11 0 -33 -6 -50 -13z"/>
<path d="M6810 3096 c0 -8 7 -16 15 -20 9 -3 15 0 15 8 0 8 -7 16 -15 20 -9 3
-15 0 -15 -8z"/>
<path d="M6824 3045 c-9 -22 15 -48 31 -35 9 8 15 7 18 -2 4 -9 6 -9 6 -1 1 6
-8 18 -19 26 -11 8 -17 17 -13 20 3 4 1 7 -6 7 -6 0 -14 -7 -17 -15z"/>
<path d="M6910 3026 c0 -9 5 -16 10 -16 6 0 10 4 10 9 0 6 -4 13 -10 16 -5 3
-10 -1 -10 -9z"/>
<path d="M695 3000 c3 -5 10 -10 16 -10 5 0 9 5 9 10 0 6 -7 10 -16 10 -8 0
-12 -4 -9 -10z"/>
<path d="M6650 2994 c0 -3 4 -14 10 -24 7 -13 6 -21 -5 -30 -21 -17 -7 -43 20
-36 15 4 25 1 29 -9 3 -8 11 -15 17 -15 8 0 7 6 -2 18 -13 15 -12 16 3 4 17
-14 88 -7 88 8 0 5 -16 18 -35 30 -19 12 -35 26 -35 31 0 6 -6 7 -12 3 -8 -5
-8 -2 1 10 12 15 12 17 0 14 -8 -2 -17 -7 -20 -11 -3 -4 -18 -3 -32 2 -15 6
-27 8 -27 5z m100 -66 c0 -5 -16 -8 -36 -8 -20 0 -33 4 -29 10 7 11 65 9 65
-2z"/>
<path d="M6813 2969 c0 -26 22 -47 56 -54 9 -2 24 -6 34 -10 10 -4 17 -3 17 5
0 6 -9 14 -19 17 -11 3 -22 12 -26 20 -5 14 -3 14 12 2 14 -11 13 -9 -2 13
-11 14 -32 28 -46 30 -22 4 -26 0 -26 -23z"/>
<path d="M6930 2989 c0 -5 7 -12 15 -15 20 -8 19 -24 -2 -24 -23 0 -8 -13 20
-16 12 -1 22 -3 22 -4 0 -1 8 -3 18 -5 9 -2 15 1 11 6 -3 5 -9 7 -14 4 -5 -3
-16 7 -24 23 -15 30 -46 50 -46 31z"/>
<path d="M6930 2900 c0 -11 5 -20 10 -20 6 0 10 9 10 20 0 11 -4 20 -10 20 -5
0 -10 -9 -10 -20z"/>
<path d="M7032 2908 c6 -18 28 -21 28 -4 0 9 -7 16 -16 16 -9 0 -14 -5 -12
-12z"/>
<path d="M7125 2870 c-3 -5 -1 -10 4 -10 6 0 11 5 11 10 0 6 -2 10 -4 10 -3 0
-8 -4 -11 -10z"/>
<path d="M6678 2863 c6 -2 18 -2 25 0 6 3 1 5 -13 5 -14 0 -19 -2 -12 -5z"/>
<path d="M6852 2844 c-10 -19 -9 -21 13 -21 14 0 28 3 31 8 3 5 -2 6 -10 3 -9
-3 -16 2 -18 13 -4 16 -5 16 -16 -3z"/>
<path d="M6920 2843 c0 -13 9 -19 30 -20 37 -3 39 14 4 27 -33 13 -34 13 -34
-7z"/>
<path d="M6430 2846 c0 -2 7 -6 15 -10 8 -3 15 -1 15 4 0 6 -7 10 -15 10 -8 0
-15 -2 -15 -4z"/>
<path d="M7205 2130 c-4 -6 11 -10 37 -10 31 0 39 3 28 10 -20 13 -57 13 -65
0z"/>
<path d="M6310 2114 c-19 -6 -37 -19 -38 -29 -4 -15 4 -17 71 -13 78 3 98 11
80 29 -19 19 -76 25 -113 13z"/>
<path d="M6690 2109 c-14 -6 -36 -8 -50 -6 -31 6 -60 -8 -60 -30 0 -12 8 -15
39 -10 30 4 41 1 45 -10 5 -11 16 -14 41 -11 19 2 35 1 35 -3 0 -11 118 -10
125 1 3 5 28 10 55 10 86 0 64 29 -35 45 -22 4 -44 9 -48 12 -17 10 -123 11
-147 2z"/>
<path d="M7020 2103 c0 -10 75 -23 130 -23 17 0 21 3 13 11 -15 15 -143 25
-143 12z"/>
<path d="M6458 1937 c-116 -25 3 -68 129 -46 71 12 88 25 46 35 -15 3 -44 10
-63 15 -40 10 -48 10 -112 -4z"/>
<path d="M6836 1891 c-18 -7 -18 -8 -2 -14 29 -11 58 -8 54 6 -6 15 -27 18
-52 8z"/>
<path d="M6360 1880 c0 -5 5 -10 10 -10 6 0 10 5 10 10 0 6 -4 10 -10 10 -5 0
-10 -4 -10 -10z"/>
<path d="M6463 1693 c-41 -16 13 -36 71 -26 36 6 37 7 21 20 -18 13 -68 16
-92 6z"/>
<path d="M6760 1500 c0 -5 15 -10 33 -10 24 0 28 3 17 10 -20 13 -50 13 -50 0z"/>
</g>
</svg>
